<svg width="40" height="40" viewBox="0 0 40 40" fill="none" xmlns="http://www.w3.org/2000/svg">
  <g clip-path="url(#clip0_280_1948)">
    <path d="M36.6673 16.666V28.3327C36.6673 31.0942 34.4288 33.3327 31.6673 33.3327H8.33398C5.57257 33.3327 3.33398 31.0942 3.33398 28.3327V16.666H36.6673ZM30.0006 23.3327H25.0006C24.0801 23.3327 23.334 24.0788 23.334 24.9993C23.334 25.9198 24.0801 26.666 25.0006 26.666H30.0006C30.9211 26.666 31.6673 25.9198 31.6673 24.9993C31.6673 24.0788 30.9211 23.3327 30.0006 23.3327ZM31.6673 6.66602C34.4288 6.66602 36.6673 8.9046 36.6673 11.666V13.3327H3.33398V11.666C3.33398 8.9046 5.57257 6.66602 8.33398 6.66602H31.6673Z" fill="#FF5555" />
  </g>
  <defs>
    <clipPath id="clip0_280_1948">
      <rect width="40" height="40" fill="white" />
    </clipPath>
  </defs>
</svg>