<svg width="62" height="39" viewBox="0 0 62 39" fill="none" xmlns="http://www.w3.org/2000/svg">
<path d="M61.9986 13.9741C60.6373 13.0471 59.3313 12.1575 58.0059 11.2541C57.9451 11.3485 57.894 11.4179 57.8511 11.4928C54.7277 17.0284 51.6057 22.5668 48.4809 28.1011C46.8515 30.9848 45.2137 33.8657 43.5829 36.7494C43.3659 37.1324 43.1794 37.532 42.9582 37.9109C42.8822 38.0413 42.7454 38.2203 42.6348 38.2217C42.5257 38.2245 42.3819 38.0469 42.3087 37.9164C41.1616 35.864 40.0173 33.8088 38.884 31.748C37.9442 30.0411 37.0196 28.3273 36.0881 26.6162C36.0798 26.6009 36.0632 26.5912 36.0245 26.5524C35.9333 26.712 35.8449 26.8632 35.7592 27.0173C33.7248 30.6212 31.6918 34.2265 29.6506 37.8276C29.5607 37.9858 29.3935 38.0982 29.2608 38.2314C29.1323 38.0941 28.9692 37.9761 28.8822 37.8165C27.5872 35.4574 26.2922 33.0969 25 30.7364L29.2954 23.4467C29.3355 23.4578 29.4281 23.3495 29.4695 23.2774C31.4196 19.9052 33.3655 16.5302 35.3128 13.1567C35.5671 12.7154 35.8255 12.2755 36.1185 11.7731C38.2842 15.7531 40.4153 19.6693 42.574 23.6354C45.7555 18.1358 48.9121 12.6821 52.0811 7.20753C50.6355 6.21808 49.2341 5.25778 47.7664 4.25168C52.3921 2.9042 56.9569 1.57337 61.5647 0.231445C61.7098 4.80677 61.8535 9.35572 62 13.9741H61.9986Z" fill="#FF0101"/>
<path d="M29 21.9784L24.7076 29.2314C23.3956 26.8483 22.0863 24.4651 20.7756 22.0819C19.5271 19.8092 18.3422 17.4992 17.0191 15.2707C14.9613 11.8036 11.8677 9.91337 7.82798 9.73663C5.46219 9.63307 3.0881 9.70487 0.716783 9.69521C0.610439 9.69521 0.502715 9.68278 0.39499 9.6814C0.128441 9.67726 0 9.53642 0 9.27822C0 7.31065 0.00138108 5.3417 0.00414325 3.37413C0.00414325 3.33961 0.0151919 3.30509 0.0276217 3.23744H0.313506C3.83113 3.23744 7.34737 3.21949 10.8636 3.24572C12.2903 3.25677 13.6451 3.63371 14.9419 4.2371C17.0191 5.20501 18.8338 6.52086 20.4359 8.15843C21.9178 9.67173 23.0323 11.4267 24.0364 13.2741C25.202 15.417 26.4132 17.5365 27.6051 19.6656C28.0029 20.3767 28.3978 21.0878 28.7997 21.7947C28.8439 21.872 28.9199 21.9549 28.9986 21.977L29 21.9784Z" fill="#FF0101"/>
<path d="M10.0015 11.2314C10.6085 11.2411 11.1534 11.3632 11.6939 11.6034C12.6815 12.04 13.5225 12.6412 14.2391 13.3948C15.1601 14.3639 15.9596 15.4058 16.5178 16.6041C16.8391 17.2946 16.9917 18.0043 16.9931 18.7373C17.0035 24.1168 16.9991 29.4964 16.9991 34.8759V35.2314H10V11.2314H10.0015Z" fill="black"/>
<path d="M17 4.23271H30V10.2276C29.9082 10.2276 29.8164 10.2276 29.7246 10.2276C27.6575 10.2276 25.5891 10.2251 23.5219 10.2314C23.3384 10.2314 23.2293 10.1871 23.1295 10.0312C21.5985 7.65096 19.5832 5.73208 17.0665 4.29735C17.0466 4.28594 17.0333 4.26567 17 4.23145V4.23271Z" fill="black"/>
</svg>
