<svg width="14" height="14" viewBox="0 0 14 14" fill="none" xmlns="http://www.w3.org/2000/svg">
  <path d="M12.9473 2.53868C13.5604 2.75413 14 3.33824 14 4.025V11.025C14 12.668 12.668 14 11.025 14H4.025C3.33824 14 2.75413 13.5604 2.53868 12.9473L4.00677 12.9497L11.025 12.95C12.0881 12.95 12.95 12.0881 12.95 11.025V4.025L12.9472 3.98931L12.9473 2.53868ZM10.6728 0C11.5426 0 12.2478 0.705151 12.2478 1.575V10.6728C12.2478 11.5426 11.5426 12.2478 10.6728 12.2478H1.575C0.705151 12.2478 0 11.5426 0 10.6728V1.575C0 0.705151 0.705151 0 1.575 0H10.6728ZM6.125 3.325C5.85921 3.325 5.63956 3.52251 5.60479 3.77876L5.6 3.85V5.6H3.85C3.56005 5.6 3.325 5.83505 3.325 6.125C3.325 6.39079 3.52251 6.61044 3.77876 6.64521L3.85 6.65H5.6V8.4C5.6 8.68995 5.83505 8.925 6.125 8.925C6.39079 8.925 6.61044 8.72749 6.64521 8.47124L6.65 8.4V6.65H8.4C8.68995 6.65 8.925 6.41495 8.925 6.125C8.925 5.85921 8.72749 5.63956 8.47124 5.60479L8.4 5.6H6.65V3.85C6.65 3.56005 6.41495 3.325 6.125 3.325Z" fill="#212121" />
</svg>