<svg width="14" height="16" viewBox="0 0 14 16" fill="none" xmlns="http://www.w3.org/2000/svg">
  <path d="M7.77787 14.778C7.77787 14.9842 7.69592 15.1821 7.55006 15.3279C7.4042 15.4738 7.20637 15.5557 7.00008 15.5557H3.88894C2.8579 15.5545 1.86946 15.1444 1.14041 14.4153C0.411358 13.6863 0.00123502 12.6978 0 11.6668V3.88893C0.00123502 2.8579 0.411358 1.86946 1.14041 1.14041C1.86946 0.411357 2.8579 0.00123501 3.88894 0H7.00008C7.20637 0 7.4042 0.0819451 7.55006 0.227808C7.69592 0.373672 7.77787 0.571505 7.77787 0.777787C7.77787 0.984069 7.69592 1.1819 7.55006 1.32777C7.4042 1.47363 7.20637 1.55557 7.00008 1.55557H3.88894C3.27009 1.55557 2.67659 1.80141 2.239 2.239C1.80141 2.67659 1.55557 3.27009 1.55557 3.88893V11.6668C1.55557 12.2857 1.80141 12.8792 2.239 13.3167C2.67659 13.7543 3.27009 14.0002 3.88894 14.0002H7.00008C7.20637 14.0002 7.4042 14.0821 7.55006 14.228C7.69592 14.3738 7.77787 14.5717 7.77787 14.778ZM13.7723 7.22797L10.6611 4.11683C10.5894 4.04254 10.5036 3.98329 10.4087 3.94252C10.3138 3.90176 10.2117 3.8803 10.1084 3.87941C10.0052 3.87851 9.90274 3.89819 9.80715 3.9373C9.71157 3.9764 9.62472 4.03416 9.5517 4.10719C9.47867 4.18021 9.42091 4.26706 9.38181 4.36264C9.3427 4.45823 9.32302 4.56065 9.32392 4.66392C9.32481 4.7672 9.34627 4.86926 9.38703 4.96415C9.4278 5.05904 9.48705 5.14487 9.56134 5.21662L11.3448 7.00008H5.44451C5.23823 7.00008 5.04039 7.08203 4.89453 7.22789C4.74867 7.37375 4.66672 7.57159 4.66672 7.77787C4.66672 7.98415 4.74867 8.18198 4.89453 8.32785C5.04039 8.47371 5.23823 8.55566 5.44451 8.55566H11.3448L9.56134 10.3391C9.48705 10.4109 9.4278 10.4967 9.38703 10.5916C9.34627 10.6865 9.32481 10.7885 9.32392 10.8918C9.32302 10.9951 9.3427 11.0975 9.38181 11.1931C9.42091 11.2887 9.47867 11.3755 9.5517 11.4486C9.62472 11.5216 9.71157 11.5793 9.80715 11.6184C9.90274 11.6576 10.0052 11.6772 10.1084 11.6763C10.2117 11.6754 10.3138 11.654 10.4087 11.6132C10.5036 11.5725 10.5894 11.5132 10.6611 11.4389L13.7723 8.32776C13.9181 8.18191 14 7.98411 14 7.77787C14 7.57163 13.9181 7.37383 13.7723 7.22797Z" fill="#FF5555" />
</svg>