<svg width="14" height="19" viewBox="0 0 14 19" fill="none" xmlns="http://www.w3.org/2000/svg">
  <path d="M14 14V16.1C14 16.657 13.7788 17.1911 13.3849 17.5849C12.9911 17.9788 12.457 18.2 11.9 18.2H2.1C1.54305 18.2 1.0089 17.9788 0.615076 17.5849C0.221249 17.1911 0 16.657 0 16.1V2.1C0 1.54305 0.221249 1.0089 0.615076 0.615076C1.0089 0.221249 1.54305 0 2.1 0H4.2C4.38565 0 4.5637 0.0737498 4.69497 0.205025C4.82625 0.336301 4.9 0.514349 4.9 0.7C4.9 0.885652 4.82625 1.0637 4.69497 1.19497C4.5637 1.32625 4.38565 1.4 4.2 1.4H2.1C1.91435 1.4 1.7363 1.47375 1.60503 1.60503C1.47375 1.7363 1.4 1.91435 1.4 2.1V16.1C1.4 16.2857 1.47375 16.4637 1.60503 16.595C1.7363 16.7263 1.91435 16.8 2.1 16.8H11.9C12.0857 16.8 12.2637 16.7263 12.395 16.595C12.5263 16.4637 12.6 16.2857 12.6 16.1V14C12.6 13.8143 12.6737 13.6363 12.805 13.505C12.9363 13.3737 13.1143 13.3 13.3 13.3C13.4857 13.3 13.6637 13.3737 13.795 13.505C13.9263 13.6363 14 13.8143 14 14ZM14 6.3V10.5C14 10.6857 13.9263 10.8637 13.795 10.995C13.6637 11.1263 13.4857 11.2 13.3 11.2C13.1143 11.2 12.9363 11.1263 12.805 10.995C12.6737 10.8637 12.6 10.6857 12.6 10.5V7H9.1C8.54305 7 8.0089 6.77875 7.61508 6.38492C7.22125 5.9911 7 5.45695 7 4.9V0.7C7.00111 0.608526 7.02013 0.518156 7.056 0.434C7.12703 0.262955 7.26296 0.127032 7.434 0.0559999C7.60442 -0.0140127 7.79558 -0.0140127 7.966 0.0559999C8.05193 0.089316 8.13043 0.139272 8.197 0.203L13.797 5.803C13.8607 5.86957 13.9107 5.94807 13.944 6.034C13.9799 6.11816 13.9989 6.20853 14 6.3ZM9.1 5.6H11.613L8.4 2.387V4.9C8.4 5.08565 8.47375 5.2637 8.60502 5.39498C8.7363 5.52625 8.91435 5.6 9.1 5.6Z" fill="black" />
</svg>