<svg width="14" height="14" viewBox="0 0 14 14" fill="none" xmlns="http://www.w3.org/2000/svg">
  <path d="M7 0C3.1402 0 0 3.1402 0 7V9.9001C0 10.6169 0.6279 11.2 1.4 11.2H2.1C2.28565 11.2 2.4637 11.1263 2.59497 10.995C2.72625 10.8637 2.8 10.6857 2.8 10.5V6.8999C2.8 6.71425 2.72625 6.5362 2.59497 6.40492C2.4637 6.27365 2.28565 6.1999 2.1 6.1999H1.4644C1.8536 3.4909 4.1846 1.4 7 1.4C9.8154 1.4 12.1464 3.4909 12.5356 6.1999H11.9C11.7143 6.1999 11.5363 6.27365 11.405 6.40492C11.2737 6.5362 11.2 6.71425 11.2 6.8999V11.2C11.2 11.9721 10.5721 12.6 9.8 12.6H8.4V11.9H5.6V14H9.8C11.3442 14 12.6 12.7442 12.6 11.2C13.3721 11.2 14 10.6169 14 9.9001V7C14 3.1402 10.8598 0 7 0Z" fill="black" />
</svg>