<svg width="14" height="16" viewBox="0 0 14 16" fill="none" xmlns="http://www.w3.org/2000/svg">
  <path fill-rule="evenodd" clip-rule="evenodd" d="M0 1.75C0 1.28587 0.184374 0.840752 0.512563 0.512563C0.840752 0.184374 1.28587 0 1.75 0H8.38775C8.85184 9.91155e-05 9.29689 0.184539 9.625 0.51275L13.4872 4.375C13.8155 4.70311 13.9999 5.14816 14 5.61225V14C14 14.4641 13.8156 14.9092 13.4874 15.2374C13.1592 15.5656 12.7141 15.75 12.25 15.75H1.75C1.28587 15.75 0.840752 15.5656 0.512563 15.2374C0.184374 14.9092 0 14.4641 0 14V1.75ZM8.38775 1.75H1.75V8.4105L3.815 6.37613L4.40125 5.80038L5.01375 6.34813L6.93962 8.07188L8.631 6.38138L9.219 5.79338L9.83675 6.35075L12.25 8.53038V5.61225L8.38775 1.75ZM12.25 10.8885L9.28113 8.20662L8.246 9.24175L12.25 12.8258V10.8885ZM1.75 14V10.8666L4.45812 8.19963L10.9384 14H1.75Z" fill="black" />
</svg>