<svg width="14" height="14" viewBox="0 0 14 14" fill="none" xmlns="http://www.w3.org/2000/svg">
  <path fill-rule="evenodd" clip-rule="evenodd" d="M14 7C14 10.866 10.866 14 7 14C3.134 14 0 10.866 0 7C0 3.134 3.134 0 7 0C10.866 0 14 3.134 14 7ZM7.25081 5.16771C6.56999 5.4509 5.20924 6.03701 3.1686 6.92608C2.83723 7.05789 2.66364 7.18683 2.64784 7.31283C2.62114 7.52591 2.88791 7.60977 3.25118 7.72401C3.3006 7.73955 3.3518 7.75565 3.40429 7.77266C3.76169 7.88886 4.24248 8.0248 4.49241 8.03019C4.71913 8.03509 4.97217 7.94164 5.25153 7.74977C7.1582 6.46275 8.1424 5.81224 8.20414 5.79817C8.24775 5.7883 8.30816 5.77584 8.34911 5.81224C8.39006 5.84864 8.386 5.91752 8.38166 5.936C8.35527 6.0487 7.30807 7.02226 6.76613 7.52605C6.59722 7.68313 6.47738 7.7945 6.45288 7.81998C6.398 7.87696 6.34207 7.93086 6.28831 7.98266C5.9563 8.30277 5.70724 8.5428 6.3021 8.9348C6.58798 9.12317 6.81667 9.27892 7.04487 9.43432C7.29407 9.60407 7.54264 9.77333 7.86429 9.98417C7.94619 10.0379 8.02445 10.0937 8.10068 10.148C8.39069 10.3548 8.65123 10.5405 8.97316 10.5108C9.1602 10.4937 9.3534 10.3178 9.45154 9.79321C9.68345 8.55351 10.1393 5.8674 10.2446 4.76057C10.2539 4.6636 10.2423 4.53949 10.2329 4.485C10.2236 4.43052 10.2041 4.35289 10.1333 4.29543C10.0494 4.22738 9.91998 4.21303 9.86202 4.214C9.59875 4.21869 9.19478 4.35914 7.25081 5.16771Z" fill="black" />
</svg>