              <svg
                width="13"
                height="13"
                viewBox="0 0 13 13"
                fill="none"
                xmlns="http://www.w3.org/2000/svg"
              >
                <path
                  d="M8.00639 5.7959H4.99037C4.77996 5.7959 4.60938 5.96648 4.60938 6.17689V12.6192C4.60938 12.8297 4.77996 13.0002 4.99037 13.0002H8.00639C8.2168 13.0002 8.38739 12.8297 8.38739 12.6192V6.17689C8.38739 5.96648 8.2168 5.7959 8.00639 5.7959Z"
                  fill="black"
                />
                <path
                  d="M12.6073 9.08398H9.52699C9.31658 9.08398 9.146 9.25457 9.146 9.46498V12.6189C9.146 12.8294 9.31658 12.9999 9.52699 12.9999H12.6073C12.8177 12.9999 12.9883 12.8294 12.9883 12.6189V9.46498C12.9883 9.25454 12.8177 9.08398 12.6073 9.08398Z"
                  fill="black"
                />
                <path
                  d="M3.47305 7.56299H0.392713C0.182302 7.56299 0.0117188 7.73357 0.0117188 7.94398V12.619C0.0117188 12.8294 0.182302 13 0.392713 13H3.47305C3.68346 13 3.85404 12.8294 3.85404 12.619V7.94398C3.85404 7.73357 3.68349 7.56299 3.47305 7.56299Z"
                  fill="black"
                />
                <path
                  d="M6.50196 2.52588H6.49483C5.63017 2.52588 4.92676 3.22932 4.92676 4.09395V4.37418C4.92676 4.62988 5.13478 4.83793 5.3905 4.83793H7.60631C7.86201 4.83793 8.07006 4.62991 8.07006 4.37418V4.09395C8.07003 3.22932 7.36662 2.52588 6.50196 2.52588Z"
                  fill="black"
                />
                <path
                  d="M6.49821 1.76381C6.98832 1.76381 7.38704 1.36717 7.38704 0.879601C7.33828 -0.293378 5.65794 -0.293022 5.60938 0.879601C5.60938 1.36717 6.0081 1.76381 6.49821 1.76381Z"
                  fill="black"
                />
                <path
                  d="M1.93654 4.34912H1.9294C1.06474 4.34912 0.361328 5.05256 0.361328 5.91719V6.19742C0.361328 6.45312 0.569351 6.66117 0.825074 6.66117H3.04088C3.29658 6.66117 3.50463 6.45315 3.50463 6.19742V5.91719C3.50463 5.05256 2.80119 4.34912 1.93654 4.34912Z"
                  fill="black"
                />
                <path
                  d="M1.93278 3.58705C2.42289 3.58705 2.82161 3.19041 2.82161 2.70284C2.77285 1.52986 1.09251 1.53022 1.04395 2.70284C1.04395 3.19041 1.44267 3.58705 1.93278 3.58705Z"
                  fill="black"
                />
                <path
                  d="M11.0708 5.64795H11.0637C10.199 5.64795 9.49561 6.35139 9.49561 7.21604V7.49628C9.49561 7.75198 9.70363 7.96002 9.95935 7.96002H12.1752C12.4309 7.96002 12.6389 7.752 12.6389 7.49628V7.21604C12.6389 6.35139 11.9355 5.64795 11.0708 5.64795Z"
                  fill="black"
                />
                <path
                  d="M11.0675 4.88586C11.5577 4.88586 11.9564 4.48922 11.9564 4.00167C11.9076 2.82869 10.2273 2.82905 10.1787 4.00167C10.1787 4.48922 10.5774 4.88586 11.0675 4.88586Z"
                  fill="black"
                />
              </svg>