<svg width="27" height="26" viewBox="0 0 27 26" fill="none" xmlns="http://www.w3.org/2000/svg">
  <path fill-rule="evenodd" clip-rule="evenodd" d="M19.0122 7.79999C19.0122 4.93218 16.54 2.59998 13.5 2.59998C10.46 2.59998 7.98778 4.93218 7.98778 7.79999C7.98778 10.6678 10.46 13 13.5 13C16.54 13 19.0122 10.6678 19.0122 7.79999ZM24.2268 26H21.7683C21.0076 26 20.3903 25.4176 20.3903 24.7C20.3903 23.9824 21.0076 23.4 21.7683 23.4H22.3595C23.3131 23.4 24.0173 22.4939 23.6563 21.6606C21.9874 17.8074 18.0682 15.6 13.5 15.6C8.93176 15.6 5.01256 17.8074 3.34374 21.6606C2.98269 22.4939 3.6869 23.4 4.64051 23.4H5.23167C5.99236 23.4 6.60973 23.9824 6.60973 24.7C6.60973 25.4176 5.99236 26 5.23167 26H2.77322C1.05066 26 -0.305345 24.5141 0.0598386 22.9268C1.06306 18.5601 4.1954 15.3374 8.32129 13.8749C6.43887 12.4462 5.23167 10.257 5.23167 7.79999C5.23167 3.18368 9.48161 -0.49533 14.4908 0.05457C18.1206 0.45237 21.1275 3.18101 21.6718 6.59092C22.1404 9.53022 20.8657 12.2148 18.6787 13.8749C22.8046 15.3374 25.9369 18.5601 26.9402 22.9268C27.3053 24.5141 25.9493 26 24.2268 26ZM17.8009 20.1032C18.3397 20.6115 18.3397 21.4344 17.8009 21.9427L13.5 26L10.5772 23.2427C10.0383 22.7344 10.0383 21.9115 10.5772 21.4032C11.1146 20.8962 11.9869 20.8962 12.5257 21.4032L13.5 22.3236L15.8523 20.1032C16.3911 19.5962 17.2635 19.5962 17.8009 20.1032Z" fill="#FF5555" />
</svg>