<svg width="41" height="24" viewBox="0 0 41 24" fill="none" xmlns="http://www.w3.org/2000/svg">
  <path d="M26.0324 11.9975C26.0324 15.1798 23.3397 17.7595 20.0181 17.7595C16.6965 17.7595 14.0038 15.1798 14.0038 11.9975C14.0038 8.81515 16.6965 6.23542 20.0181 6.23542C23.3397 6.23538 26.0324 8.81518 26.0324 11.9975ZM20.029 0C16.5898 0.0152554 13.025 0.852499 9.65049 2.45545C7.14493 3.69464 4.70313 5.44297 2.58354 7.60092C1.5425 8.70248 0.214677 10.2975 0 11.9994C0.02537 13.4735 1.60666 15.2931 2.58354 16.3978C4.57118 18.471 6.94938 20.1705 9.65049 21.5445C12.7974 23.0718 16.2806 23.9511 20.029 24C23.4714 23.9845 27.0354 23.1376 30.4062 21.5445C32.9117 20.3054 35.3548 18.5558 37.4744 16.3978C38.5154 15.2963 39.8432 13.7012 40.0579 11.9994C40.0326 10.5252 38.4513 8.70555 37.4744 7.60086C35.4867 5.52766 33.1073 3.82944 30.4062 2.45538C27.2609 0.92931 23.7691 0.0560477 20.029 0ZM20.0264 2.97924C25.2379 2.97924 29.4626 7.01822 29.4626 12.0007C29.4626 16.9831 25.2379 21.022 20.0264 21.022C14.8149 21.022 10.5903 16.983 10.5903 12.0007C10.5903 7.01822 14.8149 2.97924 20.0264 2.97924Z" fill="#FF5555" />
</svg>