<svg width="18" height="19" viewBox="0 0 18 19" fill="none" xmlns="http://www.w3.org/2000/svg">
  <g clip-path="url(#clip0_424_452)">
    <path d="M15.7238 4.75C15.6655 3.34577 15.4774 2.48481 14.8713 1.87868C13.9927 1 12.5784 1 9.75 1H8.25C5.42157 1 4.00736 1 3.12868 1.87868C2.25 2.75736 2.25 4.17157 2.25 7V10C2.25 12.8284 2.25 14.2427 3.12868 15.1213C4.00736 16 5.42157 16 8.25 16H9.75C12.5784 16 13.9927 16 14.8713 15.1213C15.75 14.2427 15.75 12.8284 15.75 10V7.75" stroke="black" stroke-width="1.125" stroke-linecap="round" />
    <path d="M4.5 8.5C4.5 7.43935 4.5 6.90901 4.82951 6.5795C5.15901 6.25 5.68934 6.25 6.75 6.25H11.25C12.3106 6.25 12.841 6.25 13.1705 6.5795C13.5 6.90901 13.5 7.43935 13.5 8.5V11.5C13.5 12.5606 13.5 13.091 13.1705 13.4205C12.841 13.75 12.3106 13.75 11.25 13.75H6.75C5.68934 13.75 5.15901 13.75 4.82951 13.4205C4.5 13.091 4.5 12.5606 4.5 11.5V8.5Z" stroke="black" stroke-width="1.125" />
    <path d="M5.25 4H9" stroke="black" stroke-width="1.125" stroke-linecap="round" />
  </g>
  <defs>
    <clipPath id="clip0_424_452">
      <rect width="18" height="18" fill="white" transform="translate(0 0.5)" />
    </clipPath>
  </defs>
</svg>