<svg width="16" height="16" viewBox="0 0 16 16" fill="none" xmlns="http://www.w3.org/2000/svg">
  <path d="M8.00043 11.8876C8.43 11.8876 8.77821 11.5394 8.77821 11.1098C8.77821 10.6802 8.43 10.332 8.00043 10.332C7.57087 10.332 7.22266 10.6802 7.22266 11.1098C7.22266 11.5394 7.57087 11.8876 8.00043 11.8876Z" fill="black" />
  <path d="M8 15C11.866 15 15 11.866 15 8C15 4.13401 11.866 1 8 1C4.13401 1 1 4.13401 1 8C1 11.866 4.13401 15 8 15Z" stroke="black" stroke-width="1.33" stroke-linejoin="round" />
  <path d="M7.99913 9.55577C7.99913 9.42612 7.99913 9.29654 7.99913 9.16688C7.99913 9.16688 7.99913 8.00022 9.55469 7.22244C11.1102 6.44466 10.7214 4.11133 8.38802 4.11133C6.05469 4.11133 6.05469 6.05577 6.05469 6.05577V6.44466" stroke="black" stroke-width="1.33" />
</svg>