<svg width="20" height="20" viewBox="0 0 20 20" fill="none" xmlns="http://www.w3.org/2000/svg">
  <path d="M4.60381 13.9173C5.54743 15.216 6.92801 16.1307 8.49193 16.4932C10.0558 16.8557 11.698 16.6417 13.1168 15.8904C14.5356 15.1393 15.6356 13.9014 16.2148 12.4041C16.7941 10.9069 16.8136 9.25095 16.2698 7.74045C15.726 6.23 14.6554 4.96649 13.2548 4.18207C11.8541 3.39765 10.2173 3.14501 8.64534 3.47055C7.07333 3.7961 5.67158 4.67798 4.69763 5.95416C3.72368 7.23034 3.24294 8.81511 3.34375 10.4173M3.34375 10.4173L2.09375 9.16728M3.34375 10.4173L4.59375 9.16728" stroke="black" stroke-width="1.46667" stroke-linecap="round" stroke-linejoin="round" />
  <path d="M10 6.66797V10.0013L12.5 12.5013" stroke="black" stroke-width="1.46667" stroke-linecap="round" stroke-linejoin="round" />
</svg>