<svg width="14" height="14" viewBox="0 0 14 14" fill="none" xmlns="http://www.w3.org/2000/svg">
  <path fill-rule="evenodd" clip-rule="evenodd" d="M9.85819 4.19998C9.85819 2.65579 8.57629 1.39999 7 1.39999C5.42371 1.39999 4.14181 2.65579 4.14181 4.19998C4.14181 5.74418 5.42371 6.99998 7 6.99998C8.57629 6.99998 9.85819 5.74418 9.85819 4.19998ZM12.562 14H11.2873C10.8929 14 10.5727 13.6864 10.5727 13.3C10.5727 12.9136 10.8929 12.6 11.2873 12.6H11.5938C12.0883 12.6 12.4534 12.1121 12.2662 11.6634C11.4009 9.58857 9.36872 8.39998 7 8.39998C4.63128 8.39998 2.59911 9.58857 1.73379 11.6634C1.54658 12.1121 1.91173 12.6 2.40619 12.6H2.71272C3.10715 12.6 3.42727 12.9136 3.42727 13.3C3.42727 13.6864 3.10715 14 2.71272 14H1.43797C0.544786 14 -0.158327 13.1999 0.0310274 12.3452C0.551216 9.99387 2.17539 8.25856 4.31474 7.47106C3.33867 6.70176 2.71272 5.52298 2.71272 4.19998C2.71272 1.71429 4.91639 -0.266716 7.51376 0.0293838C9.39588 0.243583 10.955 1.71285 11.2373 3.54895C11.4802 5.13164 10.8192 6.57716 9.68526 7.47106C11.8246 8.25856 13.4488 9.99387 13.969 12.3452C14.1583 13.1999 13.4552 14 12.562 14ZM9.23009 10.8248C9.50948 11.0985 9.50948 11.5416 9.23009 11.8153L7 14L5.48445 12.5153C5.20507 12.2416 5.20507 11.7985 5.48445 11.5248C5.76313 11.2518 6.21544 11.2518 6.49483 11.5248L7 12.0204L8.21972 10.8248C8.49911 10.5518 8.95142 10.5518 9.23009 10.8248Z" fill="black" />
</svg>