<svg width="16" height="16" viewBox="0 0 16 16" fill="none" xmlns="http://www.w3.org/2000/svg">
  <g clip-path="url(#clip0_424_456)">
    <path d="M3.86677 12.4738C4.74674 12.4738 5.4601 11.7604 5.4601 10.8804C5.4601 10.0005 4.74674 9.28711 3.86677 9.28711C2.9868 9.28711 2.27344 10.0005 2.27344 10.8804C2.27344 11.7604 2.9868 12.4738 3.86677 12.4738Z" stroke="#020202" stroke-miterlimit="10" />
    <path d="M1 15.6535V15.3335C1 14.5732 1.30202 13.844 1.83963 13.3064C2.37723 12.7688 3.10638 12.4668 3.86667 12.4668C4.6258 12.4686 5.35323 12.7714 5.8894 13.3088C6.42556 13.8462 6.72667 14.5743 6.72667 15.3335V15.6535" stroke="#020202" stroke-miterlimit="10" />
    <path d="M12.1324 4.20034C13.0124 4.20034 13.7257 3.48698 13.7257 2.60701C13.7257 1.72703 13.0124 1.01367 12.1324 1.01367C11.2524 1.01367 10.5391 1.72703 10.5391 2.60701C10.5391 3.48698 11.2524 4.20034 12.1324 4.20034Z" stroke="#020202" stroke-miterlimit="10" />
    <path d="M9.27344 7.37923V7.05923C9.27344 6.30071 9.57476 5.57325 10.1111 5.0369C10.6475 4.50055 11.3749 4.19923 12.1334 4.19923C12.5096 4.19835 12.8822 4.27168 13.23 4.41501C13.5777 4.55835 13.8938 4.76888 14.1601 5.03454C14.4264 5.3002 14.6376 5.61578 14.7818 5.96321C14.9259 6.31064 15.0001 6.68308 15.0001 7.05923V7.37923" stroke="#020202" stroke-miterlimit="10" />
    <path d="M10.4688 10.48L12.4554 8.5L14.4421 10.48" stroke="#020202" stroke-miterlimit="10" />
    <path d="M12.4507 8.66602V10.5727C12.4473 11.5777 12.0478 12.541 11.339 13.2535C10.6302 13.9661 9.6691 14.3706 8.66406 14.3793" stroke="#020202" stroke-miterlimit="10" />
    <path d="M5.53193 5.54688L3.54526 7.53354L1.55859 5.54688" stroke="#020202" stroke-miterlimit="10" />
    <path d="M3.54688 7.37902V5.46568C3.54687 4.96435 3.64573 4.46793 3.83778 4.00484C4.02984 3.54175 4.31132 3.12108 4.66613 2.76689C5.02094 2.4127 5.4421 2.13195 5.90553 1.94071C6.36895 1.74946 6.86554 1.65147 7.36687 1.65235" stroke="#020202" stroke-miterlimit="10" />
  </g>
  <defs>
    <clipPath id="clip0_424_456">
      <rect width="16" height="16" fill="white" />
    </clipPath>
  </defs>
</svg>