<svg width="47" height="48" viewBox="0 0 47 48" fill="none" xmlns="http://www.w3.org/2000/svg">
  <path d="M42.4198 17.4404C36.5254 21.3532 33.5783 23.3096 30.4714 24.2954C25.9303 25.7364 21.0677 25.7364 16.5264 24.2954C13.4195 23.3096 10.4724 21.3532 4.57812 17.4404" stroke="#FF5555" stroke-width="2.75" stroke-linecap="round" />
  <path d="M15.668 22.001V26.001" stroke="#FF5555" stroke-width="2.75" stroke-linecap="round" />
  <path d="M31.332 22.001V26.001" stroke="#FF5555" stroke-width="2.75" stroke-linecap="round" />
  <path d="M17.96 8.00098C18.7665 5.6706 20.9426 4.00098 23.5006 4.00098C26.0587 4.00098 28.2348 5.6706 29.0413 8.00098" stroke="#FF5555" stroke-width="2.75" stroke-linecap="round" />
  <path d="M43.0846 28C43.0846 20.4576 43.0846 16.6863 40.7902 14.3431C39.3209 12.8424 37.2778 12.3029 34.0585 12.1089C32.2511 12 30.0733 12 27.418 12H19.5846C16.9294 12 14.7514 12 12.9442 12.1089C9.7248 12.3029 7.68175 12.8424 6.21229 14.3431C3.91797 16.6863 3.91797 20.4576 3.91797 28C3.91797 35.5424 3.91797 39.3138 6.21229 41.6568C8.50664 44 12.1993 44 19.5846 44H27.418C34.8032 44 38.4961 44 40.7902 41.6568C42.0694 40.3504 42.6354 38.6002 42.8859 36" stroke="#FF5555" stroke-width="2.75" stroke-linecap="round" />
</svg>