<svg width="23" height="24" viewBox="0 0 23 24" fill="none" xmlns="http://www.w3.org/2000/svg">
  <path fill-rule="evenodd" clip-rule="evenodd" d="M4.79167 9.12435C4.26239 9.12435 3.83333 9.55339 3.83333 10.0827V12.9577C3.83333 13.487 4.26239 13.916 4.79167 13.916H6.70833V9.12435H4.79167ZM6.70833 14.8743H5.75V18.7077C5.75 18.9723 5.96452 19.1868 6.22917 19.1868C6.49381 19.1868 6.70833 18.9723 6.70833 18.7077V14.8743ZM4.79167 14.8743C3.73312 14.8743 2.875 14.0162 2.875 12.9577V10.0827C2.875 9.02416 3.73312 8.16602 4.79167 8.16602H7.1875C7.45214 8.16602 7.66667 8.38054 7.66667 8.64518V18.7077C7.66667 19.5016 7.0231 20.1452 6.22917 20.1452C5.43524 20.1452 4.79167 19.5016 4.79167 18.7077V14.8743Z" fill="#FF5555" />
  <path fill-rule="evenodd" clip-rule="evenodd" d="M14.6056 3.91264C14.7589 3.9968 14.8542 4.1578 14.8542 4.33268V9.12435C15.9127 9.12435 16.7708 9.98249 16.7708 11.041V11.5202C16.7708 12.5787 15.9127 13.4368 14.8542 13.4368V18.2285C14.8542 18.4034 14.7589 18.5644 14.6056 18.6486C14.4523 18.7327 14.2653 18.7267 14.1177 18.6328L8.8469 15.2786C8.70871 15.1906 8.625 15.0382 8.625 14.8743V7.68685C8.625 7.52302 8.70871 7.37055 8.8469 7.28258L14.1177 3.92843C14.2653 3.83454 14.4523 3.82848 14.6056 3.91264ZM14.8542 12.4785C15.3835 12.4785 15.8125 12.0495 15.8125 11.5202V11.041C15.8125 10.5117 15.3835 10.0827 14.8542 10.0827V12.4785ZM9.58333 7.94986V14.6113L13.8958 17.3556V5.20557L9.58333 7.94986Z" fill="#FF5555" />
  <path fill-rule="evenodd" clip-rule="evenodd" d="M19.5654 8.85991C19.7122 9.08009 19.6527 9.3776 19.4325 9.52437L17.995 10.4827C17.7748 10.6295 17.4773 10.57 17.3305 10.3498C17.1837 10.1297 17.2432 9.83214 17.4634 9.68532L18.9009 8.72699C19.1211 8.58022 19.4186 8.63973 19.5654 8.85991ZM17.2501 12.0007C17.2501 11.7361 17.4646 11.5215 17.7292 11.5215H19.6459C19.9105 11.5215 20.1251 11.7361 20.1251 12.0007C20.1251 12.2653 19.9105 12.4799 19.6459 12.4799H17.7292C17.4646 12.4799 17.2501 12.2653 17.2501 12.0007ZM17.3305 13.6516C17.4773 13.4314 17.7748 13.3719 17.995 13.5187L19.4325 14.477C19.6527 14.6238 19.7122 14.9213 19.5654 15.1415C19.4186 15.3617 19.1211 15.4212 18.9009 15.2744L17.4634 14.316C17.2432 14.1693 17.1837 13.8718 17.3305 13.6516Z" fill="#FF5555" />
</svg>