<svg width="19" height="19" viewBox="0 0 19 19" fill="none" xmlns="http://www.w3.org/2000/svg">
  <path d="M13.0627 10.519C11.1034 8.36896 8.7085 9.95491 8.7085 12.1913C8.7085 14.217 10.1446 15.3856 11.3672 16.3805L11.4016 16.4085C11.5169 16.5022 11.63 16.5945 11.7398 16.6859C12.1918 17.0623 12.6272 17.4167 13.0627 17.4167C13.4981 17.4167 13.9335 17.0623 14.3855 16.6859C15.6667 15.6193 17.4168 14.4276 17.4168 12.1913C17.4168 11.4566 17.1583 10.7921 16.7419 10.3073C15.8903 9.31611 14.3783 9.07529 13.0627 10.519Z" fill="#FF5555" />
  <path d="M6.41763 14.4464C4.19456 12.7336 1.5835 10.7219 1.5835 7.23455C1.5835 3.38472 5.93779 0.6545 9.50016 4.35567C13.0625 0.6545 17.4168 3.38472 17.4168 7.23455C17.4168 7.89446 17.3233 8.50153 17.1567 9.06377C16.5875 8.6065 15.8739 8.31794 15.083 8.31351C14.3784 8.30955 13.6909 8.53082 13.0617 8.95484C11.9622 8.21637 10.7216 8.11702 9.63459 8.64181C8.33997 9.26683 7.521 10.6652 7.521 12.1922C7.521 14.0171 8.43023 15.2974 9.37468 16.2252C8.62474 16.1656 7.8734 15.5858 7.09487 14.9721C6.87556 14.7992 6.64869 14.6244 6.41763 14.4464Z" fill="#FF5555" />
</svg>