<svg width="20" height="20" viewBox="0 0 20 20" fill="none" xmlns="http://www.w3.org/2000/svg">
<path d="M8.32533 14.9827C12.0027 14.9827 14.9837 12.0017 14.9837 8.32435C14.9837 4.64705 12.0027 1.66602 8.32533 1.66602C4.64803 1.66602 1.66699 4.64705 1.66699 8.32435C1.66699 12.0017 4.64803 14.9827 8.32533 14.9827Z" stroke="#FF5555" stroke-width="1.25" stroke-linecap="round" stroke-linejoin="round"/>
<path opacity="0.4" d="M10.8174 16.5654C11.5674 17.6237 12.7924 18.3154 14.1924 18.3154C16.4674 18.3154 18.3174 16.4654 18.3174 14.1904C18.3174 12.807 17.634 11.582 16.5924 10.832" stroke="#FF5555" stroke-width="1.25" stroke-linecap="round" stroke-linejoin="round"/>
<path d="M6.17 11V4.7H8.762C9.59 4.7 10.241 4.88 10.715 5.24C11.195 5.594 11.435 6.119 11.435 6.815C11.435 7.505 11.195 8.03 10.715 8.39C10.241 8.744 9.59 8.921 8.762 8.921H6.818L7.34 8.381V11H6.17ZM7.34 8.507L6.818 7.976H8.753C9.233 7.976 9.602 7.877 9.86 7.679C10.124 7.475 10.256 7.19 10.256 6.824C10.256 6.458 10.124 6.179 9.86 5.987C9.602 5.789 9.233 5.69 8.753 5.69H6.818L7.34 5.114V8.507ZM5.27 10.064V9.434H9.32V10.064H5.27Z" fill="#FF5555"/>
</svg>
