<svg width="23" height="23" viewBox="0 0 23 23" fill="none" xmlns="http://www.w3.org/2000/svg">
  <path d="M1.91699 19.166H21.0837" stroke="#FF5555" stroke-width="1.4375" stroke-linecap="round" stroke-linejoin="round" />
  <path d="M4.79199 19.166V7.85768C4.79199 7.80685 4.81219 7.7581 4.84813 7.72215C4.88407 7.68621 4.93283 7.66602 4.98366 7.66602H7.47533C7.52616 7.66602 7.57491 7.68621 7.61085 7.72215C7.6468 7.7581 7.66699 7.80685 7.66699 7.85768V19.166" stroke="#FF5555" stroke-width="1.4375" stroke-linecap="round" stroke-linejoin="round" />
  <path d="M10.542 19.1654V4.09078C10.542 3.94703 10.6282 3.83203 10.7337 3.83203H13.2253C13.3307 3.83203 13.417 3.94703 13.417 4.09078V19.1654" stroke="#FF5555" stroke-width="1.4375" stroke-linecap="round" stroke-linejoin="round" />
  <path d="M16.292 19.166V10.6848C16.292 10.6081 16.3782 10.541 16.4837 10.541H18.9753C19.0807 10.541 19.167 10.6081 19.167 10.6848V19.166" stroke="#FF5555" stroke-width="1.4375" stroke-linecap="round" stroke-linejoin="round" />
</svg>