<svg width="14" height="15" viewBox="0 0 14 15" fill="none" xmlns="http://www.w3.org/2000/svg">
  <path fill-rule="evenodd" clip-rule="evenodd" d="M4.77273 0C4.5919 0 4.41847 0.0718363 4.29061 0.199698L0.199698 4.29061C0.0718364 4.41848 0 4.5919 0 4.77273V12.9545C0 14.0843 0.915784 15 2.04545 15H2.72727C3.10383 15 3.40909 14.6947 3.40909 14.3182C3.40909 13.9416 3.10383 13.6364 2.72727 13.6364H2.04545C1.6689 13.6364 1.36364 13.3311 1.36364 12.9545V5.45455H4.77273C5.14929 5.45455 5.45455 5.14928 5.45455 4.77273V1.36364H10.2273C10.6038 1.36364 10.9091 1.6689 10.9091 2.04545V4.09091C10.9091 4.46746 11.2143 4.77273 11.5909 4.77273C11.9675 4.77273 12.2727 4.46746 12.2727 4.09091V2.04545C12.2727 0.915784 11.357 0 10.2273 0H4.77273ZM4.09091 4.09091H2.32787L4.09091 2.32787V4.09091ZM13.0372 6.61848C12.2384 5.81968 10.9434 5.81968 10.1446 6.61848L8.99925 7.7638L5.65425 11.1088C5.56684 11.1962 5.50486 11.3056 5.47493 11.4256L4.79311 14.1528C4.73499 14.3851 4.80307 14.6309 4.97243 14.8003C5.1418 14.9697 5.38759 15.0377 5.61989 14.9796L8.34716 14.2978C8.46709 14.2679 8.57652 14.2059 8.66393 14.1185L11.9697 10.8127L13.1542 9.62816C13.9531 8.82934 13.9531 7.5343 13.1542 6.73548L13.0372 6.61848ZM10.4365 8.25505L11.1088 7.5827C11.375 7.31645 11.8068 7.31645 12.073 7.5827L12.19 7.6997C12.4563 7.96595 12.4563 8.39768 12.19 8.66393L11.497 9.357L10.4365 8.25505ZM9.47202 9.21948L10.5325 10.3214L7.83327 13.0207L6.39164 13.3811L6.75204 11.9395L9.47202 9.21948Z" fill="#FF5555" />
</svg>