<svg width="18" height="18" viewBox="0 0 18 18" fill="none" xmlns="http://www.w3.org/2000/svg">
  <path fill-rule="evenodd" clip-rule="evenodd" d="M11.7101 15.5283C12.0847 14.9508 12.4601 14.2082 12.7298 13.2554C13.3527 13.4946 13.7801 13.7801 14.0424 14.0053C13.3703 14.6728 12.5653 15.1915 11.6796 15.5274H11.7101V15.5283ZM4.45015 13.9979C4.72735 13.7726 5.14727 13.4946 5.77015 13.2471C6.04735 14.2074 6.40787 14.9499 6.78985 15.5274C5.91727 15.1842 5.12558 14.6633 4.465 13.9979H4.45015ZM13.2249 8.50007C13.2018 7.83182 13.1341 7.1644 13.0227 6.50523C13.8477 6.20493 14.4475 5.84522 14.8674 5.51522C15.453 6.41158 15.8156 7.43501 15.9251 8.50007H13.2249ZM5.82212 5.03507C5.38557 4.87423 4.97416 4.652 4.6003 4.37508C5.23259 3.77039 5.97618 3.29409 6.78985 2.97257C6.43757 3.49727 6.09272 4.17212 5.8147 5.03507H5.82295H5.82212ZM11.7101 2.97257C12.5244 3.29306 13.2681 3.76948 13.8997 4.37508C13.5254 4.6513 13.1141 4.87348 12.6779 5.03507C12.4543 4.30403 12.1258 3.6093 11.7027 2.97257H11.7101ZM11.56 6.87235C11.6342 7.36735 11.7101 7.9003 11.725 8.50007H6.775C6.79728 7.9003 6.84925 7.35992 6.92515 6.87235C8.45552 7.1479 10.0222 7.1479 11.5526 6.87235H11.56ZM9.25 5.57463C8.49925 5.57463 7.83925 5.51522 7.27825 5.4253C7.8772 3.57977 8.8078 2.83727 9.25 2.57492C9.67735 2.83727 10.6154 3.5872 11.2151 5.4253C10.5651 5.5271 9.90797 5.57703 9.25 5.57463ZM3.62515 5.51522C4.18596 5.94161 4.81119 6.2758 5.47727 6.50523C5.36593 7.16498 5.29841 7.83139 5.27515 8.50007H2.5444C2.66285 7.43234 3.03605 6.40867 3.63258 5.51522H3.62515ZM2.55265 9.99993H5.27515C5.30485 10.6451 5.3494 11.2374 5.44015 11.7778C4.74916 12.0151 4.10441 12.3702 3.5344 12.8272C2.99496 11.9717 2.65648 11.0051 2.5444 9.99993H2.55265ZM9.25 11.2003C8.35075 11.2003 7.57772 11.2746 6.90287 11.395C6.83694 10.9327 6.79426 10.4673 6.775 10.0007H11.725C11.7027 10.5023 11.6648 10.9742 11.6054 11.395C10.8282 11.2545 10.0397 11.1868 9.25 11.1929V11.2003ZM9.25 15.9251C8.80037 15.6553 7.81038 14.8526 7.20978 12.8503C7.88412 12.7404 8.56683 12.6902 9.25 12.7001C10.0379 12.7001 10.7127 12.7521 11.2977 12.8503C10.6979 14.8749 9.70787 15.6553 9.25742 15.9251H9.25ZM14.9648 12.8198C14.3955 12.3622 13.7509 12.0071 13.0598 11.7704C13.1503 11.1841 13.2054 10.5928 13.2249 9.99993H15.9556C15.8424 11.0025 15.5032 11.9665 14.9648 12.8198ZM9.25 1C4.69353 1 1 4.69353 1 9.25C1 13.8065 4.69353 17.5 9.25 17.5C13.8065 17.5 17.5 13.8065 17.5 9.25C17.5 4.69353 13.8065 1 9.25 1Z" fill="#FF5555" />
</svg>