<svg width="355" height="187" viewBox="0 0 355 187" fill="none" xmlns="http://www.w3.org/2000/svg">
<path d="M54.724 132.942C50.4893 136.792 17.029 169.515 0.828125 185.395C105.572 185.715 318.621 186.357 332.865 186.357C347.109 186.357 353.236 172.883 354.519 166.146L355.001 0.127686L353.076 0.608898C351.632 1.89213 345.228 5.03379 334.79 14.5641C323.722 24.6695 306.398 36.8603 300.624 38.6247C293.085 38.1435 271.27 33.8126 253.465 28.5192C234.642 22.9232 213.685 33.4918 209.193 36.2186L187.539 50.1738L147.598 79.5278L104.289 105.994L66.7543 125.243C64.5086 126.205 58.9586 129.093 54.724 132.942Z" fill="url(#paint0_linear_244_143)"/>
<defs>
<linearGradient id="paint0_linear_244_143" x1="130.756" y1="11.1956" x2="177.914" y2="186.357" gradientUnits="userSpaceOnUse">
<stop stop-color="#30D615"/>
<stop offset="1" stop-color="#35EC17" stop-opacity="0"/>
</linearGradient>
</defs>
</svg>
