<svg width="23" height="23" viewBox="0 0 23 23" fill="none" xmlns="http://www.w3.org/2000/svg">
  <g>
    <path d="M16.799 7.44658C16.7319 7.43699 16.6648 7.43699 16.5978 7.44658C15.1123 7.39866 13.9336 6.18158 13.9336 4.68658C13.9336 3.16283 15.1698 1.91699 16.7032 1.91699C18.2269 1.91699 19.4728 3.15324 19.4728 4.68658C19.4632 6.18158 18.2844 7.39866 16.799 7.44658Z" fill="#FF5555" />
    <path d="M19.9256 14.0879C18.8522 14.8066 17.3477 15.075 15.9581 14.8929C16.3222 14.1071 16.5139 13.235 16.5235 12.315C16.5235 11.3566 16.3127 10.4462 15.9102 9.6508C17.3285 9.45914 18.8331 9.72747 19.916 10.4462C21.4302 11.4429 21.4302 13.0816 19.9256 14.0879Z" fill="#FF5555" />
    <path d="M6.17198 7.44658C6.23906 7.43699 6.30615 7.43699 6.37323 7.44658C7.85865 7.39866 9.0374 6.18158 9.0374 4.68658C9.0374 3.15324 7.80115 1.91699 6.26781 1.91699C4.74406 1.91699 3.50781 3.15324 3.50781 4.68658C3.50781 6.18158 4.68656 7.39866 6.17198 7.44658Z" fill="#FF5555" />
    <path d="M6.27732 12.3152C6.27732 13.2447 6.47857 14.1264 6.84273 14.9218C5.49148 15.0656 4.08273 14.7781 3.04773 14.0977C1.53357 13.0914 1.53357 11.4527 3.04773 10.4464C4.07315 9.7564 5.52023 9.47848 6.88107 9.63182C6.48815 10.4368 6.27732 11.3472 6.27732 12.3152Z" fill="#FF5555" />
    <path d="M11.6166 15.2087C11.5399 15.1992 11.4537 15.1992 11.3674 15.2087C9.60408 15.1512 8.19531 13.7042 8.19531 11.9217C8.2049 10.1008 9.67116 8.625 11.5016 8.625C13.3224 8.625 14.7982 10.1008 14.7982 11.9217C14.7887 13.7042 13.3895 15.1512 11.6166 15.2087Z" fill="#FF5555" />
    <path d="M8.50133 17.1928C7.05424 18.1607 7.05424 19.7515 8.50133 20.7099C10.1497 21.8119 12.8522 21.8119 14.5005 20.7099C15.9476 19.7419 15.9476 18.1511 14.5005 17.1928C12.8618 16.0907 10.1593 16.0907 8.50133 17.1928Z" fill="#FF5555" />
  </g>
</svg>