<svg width="21" height="20" viewBox="0 0 21 20" fill="none" xmlns="http://www.w3.org/2000/svg">
  <path fill-rule="evenodd" clip-rule="evenodd" d="M14.7873 5.99999C14.7873 3.79399 12.8644 1.99999 10.5 1.99999C8.13557 1.99999 6.21272 3.79399 6.21272 5.99999C6.21272 8.20599 8.13557 9.99999 10.5 9.99999C12.8644 9.99999 14.7873 8.20599 14.7873 5.99999ZM18.843 20H16.9309C16.3393 20 15.8591 19.552 15.8591 19C15.8591 18.448 16.3393 18 16.9309 18H17.3907C18.1324 18 18.6801 17.303 18.3993 16.662C17.1013 13.698 14.0531 12 10.5 12C6.94692 12 3.89866 13.698 2.60069 16.662C2.31987 17.303 2.86759 18 3.60929 18H4.06908C4.66072 18 5.1409 18.448 5.1409 19C5.1409 19.552 4.66072 20 4.06908 20H2.15695C0.817179 20 -0.237491 18.857 0.0465412 17.636C0.826825 14.277 3.26309 11.798 6.47211 10.673C5.00801 9.57397 4.06908 7.88999 4.06908 5.99999C4.06908 2.44899 7.37458 -0.381023 11.2706 0.0419769C14.0938 0.347977 16.4325 2.44693 16.8559 5.06993C17.2203 7.33094 16.2289 9.39597 14.5279 10.673C17.7369 11.798 20.1732 14.277 20.9535 17.636C21.2375 18.857 20.1828 20 18.843 20ZM13.8451 15.464C14.2642 15.855 14.2642 16.488 13.8451 16.879L10.5 20L8.22668 17.879C7.8076 17.488 7.8076 16.855 8.22668 16.464C8.64469 16.074 9.32316 16.074 9.74224 16.464L10.5 17.172L12.3296 15.464C12.7487 15.074 13.4271 15.074 13.8451 15.464Z" fill="#FF5555" />
</svg>