          <svg
            width="23"
            height="24"
            viewBox="0 0 23 24"
            fill="none"
            xmlns="http://www.w3.org/2000/svg"
          >
            <path
              d="M14.3156 10.6868H9.07942C8.71412 10.6868 8.41797 10.9829 8.41797 11.3482V22.5329C8.41797 22.8982 8.71412 23.1943 9.07942 23.1943H14.3156C14.6809 23.1943 14.977 22.8982 14.977 22.5329V11.3482C14.977 10.9829 14.6809 10.6868 14.3156 10.6868Z"
              fill="black"
            />
            <path
              d="M22.3052 16.3959H16.9573C16.5921 16.3959 16.2959 16.692 16.2959 17.0573V22.533C16.2959 22.8983 16.5921 23.1944 16.9573 23.1944H22.3052C22.6704 23.1944 22.9666 22.8983 22.9666 22.533V17.0573C22.9666 16.692 22.6704 16.3959 22.3052 16.3959Z"
              fill="black"
            />
            <path
              d="M6.44578 13.755H1.09797C0.732676 13.755 0.436523 14.0512 0.436523 14.4165V22.5327C0.436523 22.898 0.732676 23.1942 1.09797 23.1942H6.44578C6.81108 23.1942 7.10723 22.898 7.10723 22.5327V14.4165C7.10723 14.0512 6.81112 13.755 6.44578 13.755Z"
              fill="black"
            />
            <path
              d="M11.7045 5.00989H11.6921C10.1909 5.00989 8.96973 6.23114 8.96973 7.73223V8.21875C8.96973 8.66267 9.33088 9.02386 9.77484 9.02386H13.6217C14.0657 9.02386 14.4268 8.66271 14.4268 8.21875V7.73223C14.4268 6.23114 13.2056 5.00989 11.7045 5.00989Z"
              fill="black"
            />
            <path
              d="M11.6984 3.68717C12.5493 3.68717 13.2415 2.99856 13.2415 2.15209C13.1568 0.115663 10.2396 0.11628 10.1553 2.15209C10.1553 2.99856 10.8475 3.68717 11.6984 3.68717Z"
              fill="black"
            />
            <path
              d="M3.77819 8.17517H3.7658C2.26467 8.17517 1.04346 9.39642 1.04346 10.8975V11.384C1.04346 11.828 1.40461 12.1891 1.84857 12.1891H5.69547C6.13938 12.1891 6.50058 11.828 6.50058 11.384V10.8975C6.50058 9.39642 5.27933 8.17517 3.77819 8.17517Z"
              fill="black"
            />
            <path
              d="M3.77163 6.85246C4.62252 6.85246 5.31474 6.16385 5.31474 5.31737C5.23008 3.28095 2.31283 3.28156 2.22852 5.31737C2.22852 6.16385 2.92074 6.85246 3.77163 6.85246Z"
              fill="black"
            />
            <path
              d="M19.6371 10.4307H19.6247C18.1236 10.4307 16.9023 11.6519 16.9023 13.1531V13.6396C16.9023 14.0835 17.2635 14.4447 17.7075 14.4447H21.5544C21.9983 14.4447 22.3595 14.0835 22.3595 13.6396V13.1531C22.3595 11.6519 21.1382 10.4307 19.6371 10.4307Z"
              fill="black"
            />
            <path
              d="M19.631 9.10766C20.4819 9.10766 21.1741 8.41905 21.1741 7.57262C21.0895 5.5362 18.1722 5.53681 18.0879 7.57262C18.0878 8.41905 18.7801 9.10766 19.631 9.10766Z"
              fill="black"
            />
          </svg>