              <svg
                width="30"
                height="30"
                viewBox="0 0 30 30"
                fill="none"
                xmlns="http://www.w3.org/2000/svg"
              >
                <path
                  d="M1.87476 1.87354V3.75051H5.77124L8.43543 19.7631V22.6745C7.35328 23.068 6.56775 24.104 6.56775 25.3149C6.56775 26.857 7.83439 28.1237 9.37659 28.1237C10.9188 28.1237 12.1873 26.857 12.1873 25.3149C12.1873 24.9843 12.1182 24.6697 12.0115 24.3737H20.806C20.6982 24.6706 20.6229 24.9832 20.6229 25.3149C20.6229 26.857 21.8969 28.1237 23.4391 28.1237C24.9813 28.1237 26.2497 26.857 26.2497 25.3149C26.2497 24.9839 26.1791 24.67 26.0721 24.3737H28.1247V22.4969H10.3122V20.6219H23.4391C23.8404 20.6211 24.1967 20.3648 24.3253 19.9845L28.0771 8.73285C28.2775 8.12762 27.8285 7.50315 27.1909 7.50057H18.7497V9.37538H25.8835L22.7616 18.7468H10.1749L8.60938 9.37538H14.9998V7.50057H8.29628L7.48695 2.65555C7.41126 2.20566 7.02398 1.87555 6.56776 1.87354H1.87476ZM15.9354 7.50057V13.032C15.5093 12.4348 15.0755 11.8433 14.6409 11.2524L13.1266 12.3454C14.1168 13.729 15.1176 15.1051 16.1149 16.4836C16.4893 16.9981 17.2565 16.9981 17.631 16.4836C18.6297 15.104 19.6256 13.7221 20.6284 12.3454L19.105 11.2524C18.6726 11.8493 18.2416 12.4472 17.8104 13.045V7.50057H15.9354ZM9.37659 24.3737C9.90546 24.3737 10.3123 24.786 10.3123 25.3149C10.3123 25.8437 9.90546 26.2487 9.37659 26.2487C8.84772 26.2487 8.43543 25.8437 8.43543 25.3149C8.43543 24.786 8.84772 24.3737 9.37659 24.3737ZM23.4391 24.3737C23.968 24.3737 24.3748 24.786 24.3748 25.3149C24.3748 25.8437 23.968 26.2487 23.4391 26.2487C22.9102 26.2487 22.4979 25.8437 22.4979 25.3149C22.4979 24.786 22.9102 24.3737 23.4391 24.3737Z"
                  fill="white"
                />
              </svg>