                <svg
                  width="15"
                  height="15"
                  viewBox="0 0 15 15"
                  fill="none"
                  xmlns="http://www.w3.org/2000/svg"
                >
                  <path
                    d="M1.64746 11.0984V14.0246C1.64746 14.5637 2.08372 15 2.62287 15H12.377C12.9162 15 13.3524 14.5637 13.3524 14.0246V11.0984C13.3524 9.48191 12.0437 8.17212 10.4262 8.17212H10.1761C10.0449 8.17212 9.93972 8.27878 9.92714 8.40935C9.80783 9.64493 8.76675 10.6107 7.49989 10.6107C6.23302 10.6107 5.19197 9.64493 5.07274 8.40935C5.06016 8.27878 4.955 8.17212 4.82379 8.17212H4.57365C2.95811 8.17212 1.64746 9.48191 1.64746 11.0984Z"
                    fill="var(--violet-color)"
                  />
                  <path
                    d="M7.49988 8.01981C9.43731 8.01981 11.0086 6.22434 11.0086 4.00986C11.0086 1.79537 9.43731 0 7.49988 0C5.56245 0 3.99121 1.79545 3.99121 4.00996C3.99121 6.22444 5.56245 8.01981 7.49988 8.01981ZM7.49988 4.00996C8.41528 4.00996 9.1789 3.54692 9.41964 2.91744C9.77993 3.35158 10.0061 3.90226 10.0061 4.51125C10.0061 5.89553 8.88314 7.01742 7.49988 7.01742C6.11559 7.01742 4.99371 5.89553 4.99371 4.51125C4.99371 3.90226 6.58448 4.00996 7.49988 4.00996Z"
                    fill="var(--violet-color)"
                  />
                </svg>