                <svg
                  width="14"
                  height="14"
                  viewBox="0 0 14 14"
                  fill="none"
                  xmlns="http://www.w3.org/2000/svg"
                >
                  <g clipPath="url(#clip0_5_279)">
                    <path
                      d="M6.98761 1.70772e-05C4.5693 0.00677098 2.625 1.99904 2.625 4.41737V7.65627C2.625 7.94635 2.74023 8.22455 2.94535 8.42967C3.15047 8.63478 3.42867 8.75002 3.71875 8.75002H5.31929C5.36764 8.75002 5.41552 8.74049 5.4602 8.72199C5.50487 8.70348 5.54546 8.67636 5.57965 8.64217C5.61384 8.60798 5.64097 8.56739 5.65947 8.52271C5.67798 8.47804 5.6875 8.43016 5.6875 8.38181C5.68725 8.32136 5.67222 8.26189 5.64373 8.20857C5.61524 8.15526 5.57415 8.10972 5.52404 8.07591C5.17013 7.83536 4.88042 7.51191 4.68015 7.13375C4.47987 6.75559 4.37511 6.33419 4.375 5.90627V3.93752C4.25901 3.93738 4.14781 3.89124 4.06579 3.80922C3.98378 3.72721 3.93764 3.61601 3.9375 3.50002V2.85126C3.93677 2.79481 3.9574 2.74017 3.99527 2.69829C4.03314 2.65642 4.08544 2.63041 4.14168 2.62548C4.17157 2.62349 4.20155 2.62765 4.22976 2.63772C4.25797 2.64778 4.28382 2.66354 4.3057 2.684C4.32757 2.70447 4.34501 2.72921 4.35693 2.75669C4.36885 2.78417 4.375 2.81381 4.375 2.84377V3.28127C4.375 3.33928 4.39805 3.39492 4.43907 3.43595C4.48009 3.47697 4.53573 3.50002 4.59375 3.50002H9.40625C9.46427 3.50002 9.51991 3.47697 9.56093 3.43595C9.60195 3.39492 9.625 3.33928 9.625 3.28127V2.85126C9.62427 2.79481 9.64491 2.74018 9.68277 2.69831C9.72063 2.65644 9.77292 2.63042 9.82915 2.62548C9.85904 2.62348 9.88902 2.62764 9.91724 2.63771C9.94546 2.64777 9.97131 2.66353 9.99319 2.68399C10.0151 2.70446 10.0325 2.7292 10.0444 2.75668C10.0564 2.78417 10.0625 2.81381 10.0625 2.84377V3.50002C10.0625 3.61605 10.0164 3.72733 9.93436 3.80938C9.85231 3.89142 9.74103 3.93752 9.625 3.93752H6.78874C6.73229 3.93679 6.67765 3.95743 6.63577 3.9953C6.5939 4.03318 6.56789 4.08548 6.56296 4.14172C6.56097 4.17161 6.56514 4.20159 6.57521 4.2298C6.58528 4.25801 6.60103 4.28385 6.6215 4.30572C6.64196 4.3276 6.6667 4.34503 6.69418 4.35695C6.72166 4.36887 6.7513 4.37502 6.78125 4.37502H9.1875C9.30353 4.37502 9.41481 4.42111 9.49686 4.50316C9.57891 4.58521 9.625 4.69649 9.625 4.81252V5.90627C9.62489 6.33419 9.52013 6.7556 9.31985 7.13376C9.11958 7.51193 8.82987 7.83538 8.47596 8.07594C8.42585 8.10974 8.38476 8.15527 8.35627 8.20858C8.32778 8.26189 8.31275 8.32136 8.3125 8.38181C8.3125 8.43016 8.32202 8.47804 8.34053 8.52271C8.35903 8.56739 8.38615 8.60798 8.42035 8.64217C8.45454 8.67636 8.49513 8.70348 8.5398 8.72199C8.58448 8.74049 8.63236 8.75002 8.68071 8.75002H10.2812C10.5713 8.75002 10.8495 8.63478 11.0546 8.42967C11.2598 8.22455 11.375 7.94635 11.375 7.65627V4.37502C11.375 1.95851 9.40568 -0.00668214 6.98761 1.70772e-05Z"
                      fill="#FF5555"
                    />
                    <path
                      d="M5.9427 4.375H4.9948C4.89412 4.375 4.8125 4.27705 4.8125 4.15625C4.8125 4.03545 4.89412 3.9375 4.9948 3.9375H5.9427C6.04338 3.9375 6.125 4.03545 6.125 4.15625C6.125 4.27705 6.04338 4.375 5.9427 4.375Z"
                      fill="#FF5555"
                    />
                    <path
                      d="M11.817 10.2345C11.5363 9.88546 11.1454 9.64217 10.7083 9.5445L9.01619 9.16841C8.98421 9.16131 8.95105 9.16148 8.91915 9.16891C8.88724 9.17633 8.85741 9.19083 8.83186 9.21133C8.80631 9.23183 8.78569 9.2578 8.77152 9.28734C8.75735 9.31687 8.75 9.34921 8.75 9.38197V9.84381C8.75 10.2686 8.46196 10.6926 7.89387 11.1038C7.64082 11.2852 7.37152 11.4428 7.08941 11.5747L7 11.6147L6.91059 11.5747C6.62848 11.4429 6.35918 11.2852 6.10613 11.1038C5.53804 10.6926 5.25 10.2686 5.25 9.84381V9.38202C5.25 9.34927 5.24265 9.31693 5.22848 9.28739C5.21431 9.25786 5.19369 9.23188 5.16814 9.21139C5.14259 9.19089 5.11276 9.17639 5.08085 9.16896C5.04895 9.16153 5.01579 9.16137 4.98381 9.16847L3.29167 9.5445C2.8544 9.64167 2.46333 9.88505 2.18305 10.2345C1.90276 10.5839 1.75 11.0184 1.75 11.4664V14.0001H3.0625C3.12052 14.0001 3.17616 13.977 3.21718 13.936C3.2582 13.895 3.28125 13.8393 3.28125 13.7813V12.2575C3.28052 12.2011 3.30117 12.1465 3.33904 12.1046C3.37691 12.0627 3.42921 12.0367 3.48545 12.0318C3.51534 12.0298 3.54532 12.0339 3.57353 12.044C3.60174 12.0541 3.62758 12.0698 3.64946 12.0903C3.67133 12.1108 3.68876 12.1355 3.70068 12.163C3.7126 12.1905 3.71875 12.2201 3.71875 12.2501V13.7813C3.71875 13.8393 3.7418 13.895 3.78282 13.936C3.82384 13.977 3.87948 14.0001 3.9375 14.0001H10.0625C10.1205 14.0001 10.1762 13.977 10.2172 13.936C10.2582 13.895 10.2812 13.8393 10.2812 13.7813V12.2575C10.2805 12.2011 10.3012 12.1465 10.339 12.1046C10.3769 12.0627 10.4292 12.0367 10.4854 12.0318C10.5153 12.0298 10.5453 12.0339 10.5735 12.044C10.6017 12.0541 10.6276 12.0698 10.6494 12.0903C10.6713 12.1108 10.6888 12.1355 10.7007 12.163C10.7126 12.1905 10.7188 12.2201 10.7188 12.2501V13.7813C10.7188 13.8393 10.7418 13.895 10.7828 13.936C10.8238 13.977 10.8795 14.0001 10.9375 14.0001H12.25V11.4664C12.2495 11.0185 12.0968 10.5841 11.817 10.2345Z"
                      fill="#FF5555"
                    />
                  </g>
                  <defs>
                    <clipPath id="clip0_5_279">
                      <rect width="14" height="14" fill="white" />
                    </clipPath>
                  </defs>
                </svg>