                    <svg
                      width="19"
                      height="19"
                      viewBox="0 0 19 19"
                      fill="none"
                      xmlns="http://www.w3.org/2000/svg"
                    >
                      <path
                        d="M9.49996 16.625C9.26246 16.625 9.02496 16.5459 8.94579 16.3875L3.08746 9.97504C1.66246 8.39171 1.66246 5.93754 3.24579 4.43338C4.03746 3.64171 5.14579 3.16671 6.33329 3.24588C7.44163 3.32504 8.54996 3.87921 9.26246 4.75004L9.49996 5.06671L9.81663 4.75004C10.5291 3.87921 11.6375 3.32504 12.7458 3.24588C13.8541 3.16671 15.0416 3.64171 15.8333 4.43338C17.3375 5.93754 17.4166 8.39171 15.9916 9.97504L10.1333 16.3875C9.97496 16.5459 9.73746 16.625 9.49996 16.625ZM6.09579 4.75004C5.38329 4.75004 4.82913 5.06671 4.35413 5.46254C3.40413 6.41254 3.40413 7.83754 4.27496 8.86671L9.49996 14.6459L14.725 8.86671C15.5958 7.91671 15.5958 6.41254 14.6458 5.46254C14.1708 4.98754 13.4583 4.67088 12.7458 4.75004C12.0333 4.75004 11.4 5.14588 11.0041 5.70004L10.1333 6.80838C9.81663 7.20421 9.18329 7.20421 8.86663 6.80838L7.99579 5.70004C7.52079 5.14588 6.88746 4.82921 6.17496 4.75004H6.09579Z"
                        fill="#FF5555"
                      />
                    </svg>