              <svg
                width="13"
                height="13"
                viewBox="0 0 13 13"
                fill="none"
                xmlns="http://www.w3.org/2000/svg"
              >
                <g clipPath="url(#clip0_5_258)">
                  <path
                    d="M8.00591 5.79565H4.98988C4.77947 5.79565 4.60889 5.96624 4.60889 6.17665V12.619C4.60889 12.8294 4.77947 13 4.98988 13H8.00591C8.21632 13 8.3869 12.8294 8.3869 12.619V6.17665C8.3869 5.96624 8.21632 5.79565 8.00591 5.79565Z"
                    fill="black"
                  />
                  <path
                    d="M12.6073 9.08411H9.52699C9.31658 9.08411 9.146 9.25469 9.146 9.4651V12.6191C9.146 12.8295 9.31658 13.0001 9.52699 13.0001H12.6073C12.8177 13.0001 12.9883 12.8295 12.9883 12.6191V9.4651C12.9883 9.25466 12.8177 9.08411 12.6073 9.08411Z"
                    fill="black"
                  />
                  <path
                    d="M3.47281 7.56299H0.392469C0.182058 7.56299 0.0114746 7.73357 0.0114746 7.94398V12.619C0.0114746 12.8294 0.182058 13 0.392469 13H3.47281C3.68322 13 3.8538 12.8294 3.8538 12.619V7.94398C3.8538 7.73357 3.68324 7.56299 3.47281 7.56299Z"
                    fill="black"
                  />
                  <path
                    d="M6.50148 2.52576H6.49434C5.62969 2.52576 4.92627 3.2292 4.92627 4.09383V4.37406C4.92627 4.62976 5.13429 4.83781 5.39002 4.83781H7.60583C7.86152 4.83781 8.06957 4.62978 8.06957 4.37406V4.09383C8.06955 3.2292 7.36613 2.52576 6.50148 2.52576Z"
                    fill="black"
                  />
                  <path
                    d="M6.49796 1.76381C6.98808 1.76381 7.3868 1.36717 7.3868 0.879601C7.33803 -0.293378 5.65769 -0.293022 5.60913 0.879601C5.60913 1.36717 6.00785 1.76381 6.49796 1.76381Z"
                    fill="black"
                  />
                  <path
                    d="M1.93629 4.349H1.92915C1.0645 4.349 0.361084 5.05244 0.361084 5.91707V6.1973C0.361084 6.453 0.569107 6.66105 0.82483 6.66105H3.04064C3.29634 6.66105 3.50439 6.45303 3.50439 6.1973V5.91707C3.50439 5.05244 2.80094 4.349 1.93629 4.349Z"
                    fill="black"
                  />
                  <path
                    d="M1.93253 3.58705C2.42265 3.58705 2.82137 3.19041 2.82137 2.70284C2.7726 1.52986 1.09227 1.53022 1.0437 2.70284C1.0437 3.19041 1.44242 3.58705 1.93253 3.58705Z"
                    fill="black"
                  />
                  <path
                    d="M11.0708 5.64807H11.0637C10.199 5.64807 9.49561 6.35151 9.49561 7.21617V7.4964C9.49561 7.7521 9.70363 7.96015 9.95935 7.96015H12.1752C12.4309 7.96015 12.6389 7.75212 12.6389 7.4964V7.21617C12.6389 6.35151 11.9355 5.64807 11.0708 5.64807Z"
                    fill="black"
                  />
                  <path
                    d="M11.0671 4.8861C11.5572 4.8861 11.9559 4.48946 11.9559 4.00192C11.9071 2.82894 10.2268 2.82929 10.1782 4.00192C10.1782 4.48946 10.5769 4.8861 11.0671 4.8861Z"
                    fill="black"
                  />
                </g>
                <defs>
                  <clipPath id="clip0_5_258">
                    <rect width="13" height="13" fill="white" />
                  </clipPath>
                </defs>
              </svg>