          <svg
            width="33"
            height="33"
            viewBox="0 0 33 33"
            fill="none"
            xmlns="http://www.w3.org/2000/svg"
          >
            <path
              d="M13.9239 0.92705C14.2233 0.00573969 15.5267 0.00573993 15.8261 0.927051L18.4392 8.96935C18.573 9.38138 18.957 9.66034 19.3902 9.66034L27.8464 9.66034C28.8151 9.66034 29.2179 10.9 28.4342 11.4694L21.593 16.4398C21.2425 16.6944 21.0958 17.1458 21.2297 17.5578L23.8428 25.6001C24.1422 26.5214 23.0877 27.2875 22.304 26.7181L15.4628 21.7477C15.1123 21.4931 14.6377 21.4931 14.2872 21.7477L7.44602 26.7181C6.66231 27.2875 5.60783 26.5214 5.90718 25.6001L8.52028 17.5578C8.65416 17.1458 8.5075 16.6944 8.15701 16.4398L1.31582 11.4694C0.532106 10.9 0.934881 9.66034 1.9036 9.66034L10.3598 9.66034C10.793 9.66034 11.177 9.38138 11.3108 8.96935L13.9239 0.92705Z"
              fill="#FFB82A"
            />
          </svg>