            <svg
              className={styles.TelegramChannel__header__icon}
              width="25"
              height="24"
              viewBox="0 0 25 24"
              fill="none"
              xmlns="http://www.w3.org/2000/svg"
            >
              <path
                d="M12.6893 20.845C12.3944 20.845 12.0996 20.7467 12.0013 20.5501L4.72891 12.5898C2.95994 10.6243 2.95994 7.57773 4.92546 5.71049C5.90822 4.72773 7.28408 4.13807 8.75822 4.23635C10.1341 4.33462 11.5099 5.02255 12.3944 6.10359L12.6893 6.49669L13.0824 6.10359C13.9668 5.02255 15.3427 4.33462 16.7186 4.23635C18.0944 4.13807 19.5686 4.72773 20.5513 5.71049C22.4186 7.57773 22.5168 10.6243 20.7479 12.5898L13.4755 20.5501C13.2789 20.7467 12.9841 20.845 12.6893 20.845ZM8.46339 6.10359C7.57891 6.10359 6.89098 6.49669 6.30132 6.98807C5.12201 8.16738 5.12201 9.93635 6.20304 11.2139L12.6893 18.3881L19.1755 11.2139C20.2565 10.0346 20.2565 8.16738 19.0772 6.98807C18.4875 6.39842 17.603 6.00531 16.7186 6.10359C15.8341 6.10359 15.0479 6.59497 14.5565 7.2829L13.4755 8.65876C13.0824 9.15014 12.2961 9.15014 11.903 8.65876L10.822 7.2829C10.2324 6.59497 9.44615 6.20187 8.56167 6.10359H8.46339Z"
                fill="#FF5555"
              />
            </svg>