<svg width="17" height="17" viewBox="0 0 17 17" fill="none" xmlns="http://www.w3.org/2000/svg">
  <path fill-rule="evenodd" clip-rule="evenodd" d="M15.4084 0.682144C14.4988 -0.22738 13.0242 -0.227383 12.1146 0.682144L1.12369 11.6731C0.798565 11.9982 0.576946 12.4123 0.486775 12.8631L0.0310148 15.142C-0.186271 16.2284 0.771595 17.1863 1.85802 16.969L4.13682 16.5132C4.58768 16.4231 5.00178 16.2014 5.32691 15.8763L16.3178 4.88535C17.2274 3.97583 17.2274 2.5012 16.3178 1.59167L15.4084 0.682144ZM13.2125 1.78004C13.5158 1.47686 14.0072 1.47686 14.3105 1.78004L15.22 2.68957C15.5232 2.99274 15.5232 3.48428 15.22 3.78746L13.1459 5.86149L11.1386 3.85407L13.2125 1.78004ZM10.0406 4.95196L2.22159 12.771C2.11321 12.8794 2.03934 13.0174 2.00928 13.1677L1.55352 15.4464L3.83232 14.9907C3.98261 14.9606 4.12064 14.8868 4.22901 14.7784L12.048 6.95938L10.0406 4.95196Z" fill="#FF5555" />
</svg>