<svg width="78" height="78" viewBox="0 0 78 78" fill="none" xmlns="http://www.w3.org/2000/svg">
  <path d="M39.0003 0C17.4954 0 0 17.4953 0 39C0 60.5047 17.4954 78 39.0003 78C60.5048 78 78 60.5047 78 39C78 17.4953 60.5048 0 39.0003 0ZM39.0003 71.6066C21.0207 71.6066 6.3934 56.9796 6.3934 39C6.3934 21.0206 21.0207 6.39344 39.0003 6.39344C56.9795 6.39344 71.6066 21.0206 71.6066 39C71.6066 56.9796 56.9795 71.6066 39.0003 71.6066Z" fill="#FF5555" />
  <path d="M56.3788 24.8829L32.5265 46.7215L21.6212 36.7369C20.3352 35.5597 18.2504 35.5597 16.9643 36.7369C15.6786 37.9144 15.6786 39.8231 16.9643 41.0006L30.1981 53.117C30.8411 53.7055 31.6838 54 32.5265 54C33.3693 54 34.212 53.7055 34.855 53.117L61.0357 29.1468C62.3214 27.9693 62.3214 26.0606 61.0357 24.8831C59.7496 23.7057 57.6646 23.7057 56.3788 24.8829Z" fill="#FF5555" />
</svg>