<svg width="7" height="7" viewBox="0 0 7 7" fill="none" xmlns="http://www.w3.org/2000/svg">
  <path fill-rule="evenodd" clip-rule="evenodd" d="M6.869 0.790865C6.95401 0.702851 7.00105 0.58497 6.99998 0.462612C6.99892 0.340253 6.94984 0.223207 6.86332 0.136684C6.77679 0.0501599 6.65975 0.0010809 6.53739 1.76411e-05C6.41503 -0.00104562 6.29715 0.0459919 6.20913 0.130999L3.50573 2.8344L0.802334 0.130999C0.71432 0.0459919 0.596439 -0.00104562 0.474081 1.76411e-05C0.351722 0.0010809 0.234676 0.0501599 0.148153 0.136684C0.0616287 0.223207 0.0125498 0.340253 0.0114865 0.462612C0.0104232 0.58497 0.0574608 0.702851 0.142468 0.790865L2.84587 3.49427L0.142468 6.19766C0.0978965 6.24071 0.0623447 6.29221 0.0378872 6.34914C0.0134297 6.40608 0.000556068 6.46731 1.762e-05 6.52928C-0.000520828 6.59124 0.0112865 6.65269 0.0347509 6.71004C0.0582154 6.7674 0.0928668 6.8195 0.136683 6.86332C0.1805 6.90713 0.232604 6.94178 0.289956 6.96525C0.347308 6.98871 0.408758 7.00052 0.470722 6.99998C0.532685 6.99944 0.593921 6.98657 0.650856 6.96211C0.707792 6.93765 0.759286 6.9021 0.802334 6.85753L3.50573 4.15413L6.20913 6.85753C6.29715 6.94254 6.41503 6.98958 6.53739 6.98851C6.65975 6.98745 6.77679 6.93837 6.86332 6.85185C6.94984 6.76532 6.99892 6.64828 6.99998 6.52592C7.00105 6.40356 6.95401 6.28568 6.869 6.19766L4.1656 3.49427L6.869 0.790865Z" fill="#FF5555" />
</svg>