            <svg
              className={styles.profile__header__icon}
              width="18"
              height="19"
              viewBox="0 0 18 19"
              fill="none"
              xmlns="http://www.w3.org/2000/svg"
            >
              <g clipPath="url(#clip0_244_382)">
                <path
                  d="M12.8666 1.25477C12.3792 1.00684 11.7831 1.2011 11.5353 1.68865L4.17123 16.1726C3.92337 16.6601 4.11763 17.2561 4.60511 17.5039C4.74888 17.577 4.90209 17.6117 5.05305 17.6117C5.41386 17.6117 5.76166 17.4138 5.93646 17.07L13.3005 2.58611C13.5483 2.09863 13.3541 1.50263 12.8666 1.25477Z"
                  fill="#FF5555"
                />
                <path
                  d="M7.57976 6.02432C7.57976 3.95367 5.89514 2.26904 3.82448 2.26904C1.75396 2.26904 0.0693359 3.95367 0.0693359 6.02432C0.0693359 8.09491 1.75396 9.77954 3.82455 9.77954C5.8952 9.77954 7.57976 8.09491 7.57976 6.02432ZM3.82455 7.79925C2.84589 7.79925 2.04962 7.00298 2.04962 6.02432C2.04962 5.0456 2.84589 4.24933 3.82455 4.24933C4.80327 4.24933 5.59955 5.04553 5.59955 6.02432C5.59948 7.00298 4.80327 7.79925 3.82455 7.79925Z"
                  fill="#FF5555"
                />
                <path
                  d="M13.6938 8.97913C11.6231 8.97913 9.93848 10.6638 9.93848 12.7343C9.93848 14.8049 11.623 16.4896 13.6938 16.4896C15.7643 16.4896 17.449 14.805 17.449 12.7343C17.449 10.6637 15.7644 8.97913 13.6938 8.97913ZM13.6938 14.5092C12.715 14.5092 11.9188 13.7129 11.9188 12.7343C11.9188 11.7556 12.715 10.9593 13.6938 10.9593C14.6724 10.9593 15.4687 11.7556 15.4687 12.7343C15.4687 13.7129 14.6725 14.5092 13.6938 14.5092Z"
                  fill="#FF5555"
                />
              </g>
              <defs>
                <clipPath id="clip0_244_382">
                  <rect
                    width="17.3793"
                    height="17.3793"
                    fill="white"
                    transform="translate(0.0683594 0.689697)"
                  />
                </clipPath>
              </defs>
            </svg>