            <svg
              className={styles.profile__header__icon}
              width="21"
              height="21"
              viewBox="0 0 21 21"
              fill="none"
              xmlns="http://www.w3.org/2000/svg"
            >
              <g clipPath="url(#clip0_244_374)">
                <path
                  d="M10.6206 0.448486C5.14452 0.448486 0.689453 4.90349 0.689453 10.3795C0.689453 15.8554 5.14452 20.3104 10.6206 20.3104C16.0965 20.3104 20.5515 15.8554 20.5515 10.3795C20.5515 4.90349 16.0965 0.448486 10.6206 0.448486ZM10.6206 18.6824C6.04221 18.6824 2.31748 14.9578 2.31748 10.3795C2.31748 5.80118 6.04221 2.07651 10.6206 2.07651C15.1988 2.07651 18.9235 5.80118 18.9235 10.3795C18.9235 14.9578 15.1988 18.6824 10.6206 18.6824Z"
                  fill="#FF5555"
                />
                <path
                  d="M14.9165 6.56773L9.02006 12.4643L6.32417 9.76837C6.00625 9.45051 5.49088 9.45051 5.17296 9.76837C4.85511 10.0863 4.85511 10.6017 5.17296 10.9196L8.44445 14.1911C8.60341 14.35 8.81173 14.4295 9.02006 14.4295C9.22838 14.4295 9.4367 14.35 9.59566 14.1911L16.0677 7.71901C16.3856 7.40108 16.3856 6.88572 16.0677 6.56779C15.7498 6.24987 15.2344 6.24987 14.9165 6.56773Z"
                  fill="#FF5555"
                />
              </g>
              <defs>
                <clipPath id="clip0_244_374">
                  <rect
                    width="19.8621"
                    height="19.8621"
                    fill="white"
                    transform="translate(0.689453 0.448242)"
                  />
                </clipPath>
              </defs>
            </svg>