<svg width="23" height="23" viewBox="0 0 23 23" fill="none" xmlns="http://www.w3.org/2000/svg">
  <g >
    <path d="M16.7985 7.44633C16.7314 7.43675 16.6644 7.43675 16.5973 7.44633C15.1119 7.39842 13.9331 6.18133 13.9331 4.68633C13.9331 3.16258 15.1694 1.91675 16.7027 1.91675C18.2264 1.91675 19.4723 3.153 19.4723 4.68633C19.4627 6.18133 18.2839 7.39842 16.7985 7.44633Z" fill="black" />
    <path d="M19.9251 14.0879C18.8518 14.8066 17.3472 15.075 15.9576 14.8929C16.3218 14.1071 16.5134 13.235 16.523 12.315C16.523 11.3566 16.3122 10.4462 15.9097 9.6508C17.328 9.45914 18.8326 9.72747 19.9155 10.4462C21.4297 11.4429 21.4297 13.0816 19.9251 14.0879Z" fill="black" />
    <path d="M6.17198 7.44633C6.23906 7.43675 6.30615 7.43675 6.37323 7.44633C7.85865 7.39842 9.0374 6.18133 9.0374 4.68633C9.0374 3.153 7.80115 1.91675 6.26781 1.91675C4.74406 1.91675 3.50781 3.153 3.50781 4.68633C3.50781 6.18133 4.68656 7.39842 6.17198 7.44633Z" fill="black" />
    <path d="M6.27829 12.3152C6.27829 13.2447 6.47954 14.1264 6.84371 14.9218C5.49246 15.0656 4.08371 14.7781 3.04871 14.0977C1.53454 13.0914 1.53454 11.4527 3.04871 10.4464C4.07413 9.7564 5.52121 9.47848 6.88204 9.63182C6.48913 10.4368 6.27829 11.3472 6.27829 12.3152Z" fill="black" />
    <path d="M11.6156 15.2087C11.5389 15.1992 11.4527 15.1992 11.3664 15.2087C9.6031 15.1512 8.19434 13.7042 8.19434 11.9217C8.20392 10.1008 9.67019 8.625 11.5006 8.625C13.3214 8.625 14.7973 10.1008 14.7973 11.9217C14.7877 13.7042 13.3885 15.1512 11.6156 15.2087Z" fill="black" />
    <path d="M8.50133 17.193C7.05424 18.1609 7.05424 19.7518 8.50133 20.7101C10.1497 21.8122 12.8522 21.8122 14.5005 20.7101C15.9476 19.7422 15.9476 18.1514 14.5005 17.193C12.8618 16.0909 10.1593 16.0909 8.50133 17.193Z" fill="black" />
  </g>
</svg>