<svg width="21" height="24" viewBox="0 0 21 24" fill="none" xmlns="http://www.w3.org/2000/svg">
  <path d="M11.6145 23.6275C15.307 22.888 20.0812 20.2342 20.0812 13.3717C20.0812 7.12674 15.5059 2.96822 12.2159 1.05743C11.4859 0.633423 10.6312 1.19104 10.6312 2.0347V4.19261C10.6312 5.89425 9.91518 9.00027 7.92538 10.2922C6.90951 10.9518 5.81236 9.96457 5.6889 8.76043L5.58751 7.77163C5.46966 6.62214 4.29787 5.92433 3.37833 6.62517C1.72636 7.88422 0 10.089 0 13.3717C0 21.764 6.2475 23.8621 9.37121 23.8621C9.55289 23.8621 9.74389 23.8567 9.9427 23.8452C8.40022 23.7135 5.90625 22.7574 5.90625 19.6656C5.90625 17.247 7.6723 15.6109 9.01412 14.8155C9.37499 14.6016 9.79741 14.8794 9.79741 15.2986V15.9939C9.79741 16.5261 10.0034 17.358 10.4938 17.9274C11.0487 18.5718 11.8632 17.8967 11.9289 17.0492C11.9496 16.7819 12.2187 16.6115 12.4505 16.7469C13.208 17.1892 14.175 18.1341 14.175 19.6656C14.175 22.0825 12.8414 23.1944 11.6145 23.6275Z" stroke="black" stroke-width="2.07187" stroke-linecap="round" stroke-linejoin="round" />
</svg>