<svg width="25" height="25" viewBox="0 0 25 25" fill="none" xmlns="http://www.w3.org/2000/svg">
  <path d="M21.354 10.6145H18.3436C15.8748 10.6145 13.8644 8.60408 13.8644 6.13533V3.12492C13.8644 2.552 13.3957 2.08325 12.8228 2.08325H8.40609C5.19775 2.08325 2.604 4.16659 2.604 7.88534V17.1145C2.604 20.8333 5.19775 22.9166 8.40609 22.9166H16.5936C19.8019 22.9166 22.3957 20.8333 22.3957 17.1145V11.6562C22.3957 11.0833 21.9269 10.6145 21.354 10.6145Z" fill="black" />
  <path d="M16.4582 2.30258C16.0311 1.8755 15.2915 2.16717 15.2915 2.76092V6.39633C15.2915 7.91717 16.5832 9.17758 18.1561 9.17758C19.1457 9.188 20.5207 9.188 21.6978 9.188C22.2915 9.188 22.604 8.49008 22.1873 8.07342C20.6873 6.563 17.9998 3.84425 16.4582 2.30258Z" fill="black" />
</svg>