<svg width="21" height="20" viewBox="0 0 21 20" fill="none" xmlns="http://www.w3.org/2000/svg">
  <path d="M11.228 5.04883H5.02832C3.66567 5.04883 2.55005 6.16445 2.55005 7.5271V16.5796C2.55005 17.7351 3.3788 18.2292 4.39083 17.6634L7.52254 15.9182C7.85723 15.7349 8.39911 15.7349 8.72583 15.9182L11.8575 17.6634C12.8696 18.2292 13.6983 17.7351 13.6983 16.5796V7.5271C13.7063 6.16445 12.5907 5.04883 11.228 5.04883Z" stroke="#292D32" stroke-width="1.2252" stroke-linecap="round" stroke-linejoin="round" />
  <path d="M13.7063 7.5271V16.5796C13.7063 17.7351 12.8775 18.2212 11.8655 17.6634L8.73381 15.9182C8.39912 15.7349 7.85723 15.7349 7.52254 15.9182L4.39083 17.6634C3.3788 18.2212 2.55005 17.7351 2.55005 16.5796V7.5271C2.55005 6.16445 3.66567 5.04883 5.02832 5.04883H11.228C12.5907 5.04883 13.7063 6.16445 13.7063 7.5271Z" stroke="#292D32" stroke-width="1.2252" stroke-linecap="round" stroke-linejoin="round" />
  <path d="M18.4875 4.43335V13.4859C18.4875 14.6413 17.6588 15.1274 16.6468 14.5696L13.7063 12.928V7.52523C13.7063 6.16257 12.5907 5.04695 11.228 5.04695H7.3313V4.43335C7.3313 3.0707 8.44692 1.95508 9.80958 1.95508H16.0093C17.3719 1.95508 18.4875 3.0707 18.4875 4.43335Z" stroke="#292D32" stroke-width="1.2252" stroke-linecap="round" stroke-linejoin="round" />
</svg>