<svg width="27" height="27" viewBox="0 0 27 27" fill="none" xmlns="http://www.w3.org/2000/svg">
  <path d="M5.70361 9.00009C6.69377 7.28331 8.22291 5.94136 10.0537 5.1825C11.8845 4.42363 13.9146 4.2903 15.829 4.80318C17.7433 5.31607 19.4348 6.44649 20.641 8.01902C21.8472 9.59154 22.5006 11.5182 22.4999 13.5001" stroke="black" stroke-width="2.25" stroke-linecap="round" stroke-linejoin="round" />
  <path d="M21.2963 18C20.3061 19.7168 18.777 21.0587 16.9461 21.8176C15.1153 22.5765 13.0852 22.7098 11.1709 22.1969C9.25655 21.684 7.56503 20.5536 6.35884 18.9811C5.15264 17.4085 4.49923 15.4819 4.5 13.5" stroke="black" stroke-width="2.25" stroke-linecap="round" stroke-linejoin="round" />
  <path d="M5.625 3.375V9H11.25" stroke="black" stroke-width="2.25" stroke-linecap="round" stroke-linejoin="round" />
  <path d="M21.375 23.625V18H15.75" stroke="black" stroke-width="2.25" stroke-linecap="round" stroke-linejoin="round" />
</svg>