<svg width="15" height="15" viewBox="0 0 15 15" fill="none" xmlns="http://www.w3.org/2000/svg">
  <g clip-path="url(#clip0_280_2120)">
    <path fill-rule="evenodd" clip-rule="evenodd" d="M13.0293 1.17417C12.2971 0.441943 11.1099 0.441941 10.3776 1.17417L1.52916 10.0227C1.26741 10.2844 1.08899 10.6178 1.0164 10.9808L0.649481 12.8154C0.474551 13.69 1.2457 14.4612 2.12035 14.2863L3.95494 13.9193C4.31792 13.8468 4.65129 13.6683 4.91304 13.4066L13.7615 4.55806C14.4938 3.82582 14.4938 2.63864 13.7615 1.90641L13.0293 1.17417ZM11.2615 2.05806C11.5056 1.81398 11.9013 1.81398 12.1454 2.05806L12.8776 2.79029C13.1218 3.03437 13.1218 3.43009 12.8776 3.67417L11.2079 5.34392L9.59182 3.7278L11.2615 2.05806ZM8.70789 4.61169L2.41304 10.9066C2.32579 10.9938 2.26632 11.1049 2.24212 11.2259L1.87521 13.0605L3.70979 12.6936C3.83079 12.6694 3.94191 12.6099 4.02916 12.5227L10.324 6.2278L8.70789 4.61169Z" fill="#FF5555" />
  </g>
  <defs>
    <clipPath id="clip0_280_2120">
      <rect width="15" height="15" fill="white" />
    </clipPath>
  </defs>
</svg>