<svg width="15" height="15" viewBox="0 0 15 15" fill="none" xmlns="http://www.w3.org/2000/svg">
  <path fill-rule="evenodd" clip-rule="evenodd" d="M14.7193 1.69471C14.9014 1.50611 15.0022 1.25351 15 0.991311C14.9977 0.729114 14.8925 0.478302 14.7071 0.292893C14.5217 0.107485 14.2709 0.00231622 14.0087 3.78025e-05C13.7465 -0.00224062 13.4939 0.0985542 13.3053 0.280712L7.51229 6.07371L1.71929 0.280712C1.53069 0.0985542 1.27808 -0.00224062 1.01589 3.78025e-05C0.75369 0.00231622 0.502878 0.107485 0.31747 0.292893C0.132062 0.478302 0.0268924 0.729114 0.0246139 0.991311C0.0223355 1.25351 0.12313 1.50611 0.305288 1.69471L6.09829 7.48771L0.305288 13.2807C0.209778 13.373 0.133596 13.4833 0.0811869 13.6053C0.0287779 13.7273 0.00119157 13.8585 3.7757e-05 13.9913C-0.00111606 14.1241 0.0241854 14.2558 0.0744663 14.3787C0.124747 14.5016 0.199 14.6132 0.292893 14.7071C0.386786 14.801 0.498438 14.8753 0.621334 14.9255C0.74423 14.9758 0.87591 15.0011 1.00869 15C1.14147 14.9988 1.27269 14.9712 1.39469 14.9188C1.5167 14.8664 1.62704 14.7902 1.71929 14.6947L7.51229 8.90171L13.3053 14.6947C13.4939 14.8769 13.7465 14.9777 14.0087 14.9754C14.2709 14.9731 14.5217 14.8679 14.7071 14.6825C14.8925 14.4971 14.9977 14.2463 15 13.9841C15.0022 13.7219 14.9014 13.4693 14.7193 13.2807L8.92629 7.48771L14.7193 1.69471Z" fill="#FF5555" />
</svg>