            <svg
              width="24"
              height="24"
              viewBox="0 0 24 24"
              fill="none"
              xmlns="http://www.w3.org/2000/svg"
            >
              <g clipPath="url(#clip0_5_300)">
                <path
                  d="M12 24C5.38125 24 0 18.6187 0 12C0 5.38125 5.38125 0 12 0C18.6187 0 24 5.38125 24 12C24 18.6187 18.6187 24 12 24ZM12 1.5C6.21094 1.5 1.5 6.21094 1.5 12C1.5 17.7891 6.21094 22.5 12 22.5C17.7891 22.5 22.5 17.7891 22.5 12C22.5 6.21094 17.7891 1.5 12 1.5ZM16.9266 10.2422C16.9266 9.82969 16.5891 9.49219 16.1766 9.49219H7.82344C7.41094 9.49219 7.07344 9.82969 7.07344 10.2422C7.07344 10.6547 7.41094 10.9922 7.82344 10.9922H16.1766C16.5891 10.9922 16.9266 10.6547 16.9266 10.2422ZM16.9266 6.72656C16.9266 6.31406 16.5891 5.97656 16.1766 5.97656H7.82344C7.41094 5.97656 7.07344 6.31406 7.07344 6.72656C7.07344 7.13906 7.41094 7.47656 7.82344 7.47656H16.1766C16.5891 7.47656 16.9266 7.13906 16.9266 6.72656ZM16.9266 17.2734C16.9266 16.8609 16.5891 16.5234 16.1766 16.5234H7.82344C7.41094 16.5234 7.07344 16.8609 7.07344 17.2734C7.07344 17.6859 7.41094 18.0234 7.82344 18.0234H16.1766C16.5891 18.0234 16.9266 17.6906 16.9266 17.2734ZM16.9266 13.7578C16.9266 13.3453 16.5891 13.0078 16.1766 13.0078H7.82344C7.41094 13.0078 7.07344 13.3453 7.07344 13.7578C7.07344 14.1703 7.41094 14.5078 7.82344 14.5078H16.1766C16.5891 14.5078 16.9266 14.175 16.9266 13.7578Z"
                  fill="white"
                />
              </g>
              <defs>
                <clipPath id="clip0_5_300">
                  <rect
                    width="24"
                    height="24"
                    fill="white"
                    transform="matrix(1 0 0 -1 0 24)"
                  />
                </clipPath>
              </defs>
            </svg>