              <svg
                width="31"
                height="31"
                viewBox="0 0 31 31"
                fill="none"
                xmlns="http://www.w3.org/2000/svg"
              >
                <path
                  d="M15.4999 27.125C15.1124 27.125 14.7249 26.9958 14.5958 26.7375L5.03744 16.275C2.71244 13.6917 2.71244 9.68751 5.29577 7.23334C6.58744 5.94168 8.39577 5.16668 10.3333 5.29584C12.1416 5.42501 13.9499 6.32918 15.1124 7.75001L15.4999 8.26668L16.0166 7.75001C17.1791 6.32918 18.9874 5.42501 20.7958 5.29584C22.6041 5.16668 24.5416 5.94168 25.8333 7.23334C28.2874 9.68751 28.4166 13.6917 26.0916 16.275L16.5333 26.7375C16.2749 26.9958 15.8874 27.125 15.4999 27.125ZM9.94577 7.75001C8.78327 7.75001 7.87911 8.26668 7.10411 8.91251C5.55411 10.4625 5.55411 12.7875 6.97494 14.4667L15.4999 23.8958L24.0249 14.4667C25.4458 12.9167 25.4458 10.4625 23.8958 8.91251C23.1208 8.13751 21.9583 7.62084 20.7958 7.75001C19.6333 7.75001 18.5999 8.39584 17.9541 9.30001L16.5333 11.1083C16.0166 11.7542 14.9833 11.7542 14.4666 11.1083L13.0458 9.30001C12.2708 8.39584 11.2374 7.87918 10.0749 7.75001H9.94577Z"
                  fill="white"
                />
              </svg>