                    <svg
                      width="16"
                      height="16"
                      viewBox="0 0 16 16"
                      fill="none"
                      xmlns="http://www.w3.org/2000/svg"
                    >
                      <g clipPath="url(#clip0_5_197)">
                        <path
                          d="M8.00005 0.000244141C3.5888 0.000244141 0 3.58899 0 8.00019C0 12.4114 3.5888 16.0001 8.00005 16.0001C12.4112 16.0001 16 12.4114 16 8.00019C16 3.58899 12.4112 0.000244141 8.00005 0.000244141ZM8.00005 14.6887C4.31195 14.6887 1.31147 11.6883 1.31147 8.00019C1.31147 4.31214 4.31195 1.31171 8.00005 1.31171C11.6881 1.31171 14.6885 4.31214 14.6885 8.00019C14.6885 11.6883 11.6881 14.6887 8.00005 14.6887Z"
                          fill="#FF5555"
                        />
                        <path
                          d="M11.4608 4.92958L6.71089 9.67956L4.5392 7.50787C4.2831 7.25182 3.86794 7.25182 3.61184 7.50787C3.35579 7.76397 3.35579 8.17913 3.61184 8.43524L6.2472 11.0706C6.37526 11.1986 6.54307 11.2627 6.71089 11.2627C6.8787 11.2627 7.04652 11.1986 7.17457 11.0706L12.3882 5.857C12.6442 5.60089 12.6442 5.18574 12.3882 4.92963C12.1321 4.67353 11.7169 4.67353 11.4608 4.92958Z"
                          fill="#FF5555"
                        />
                      </g>
                      <defs>
                        <clipPath id="clip0_5_197">
                          <rect width="16" height="16" fill="white" />
                        </clipPath>
                      </defs>
                    </svg>