                    <svg
                      width="14"
                      height="14"
                      viewBox="0 0 14 14"
                      fill="none"
                      xmlns="http://www.w3.org/2000/svg"
                    >
                      <g clipPath="url(#clip0_5_217)">
                        <path
                          d="M10.3095 0.455244C9.91696 0.255521 9.43674 0.412013 9.23707 0.804759L3.30494 12.4724C3.10527 12.8651 3.26176 13.3452 3.65446 13.5448C3.77027 13.6037 3.89369 13.6316 4.0153 13.6316C4.30595 13.6316 4.58612 13.4722 4.72693 13.1953L10.6591 1.52772C10.8587 1.13502 10.7022 0.654913 10.3095 0.455244Z"
                          fill="#FF5555"
                        />
                        <path
                          d="M6.05007 4.29743C6.05007 2.6294 4.69301 1.27234 3.02498 1.27234C1.35706 1.27234 0 2.6294 0 4.29743C0 5.9654 1.35706 7.32246 3.02503 7.32246C4.69306 7.32246 6.05007 5.9654 6.05007 4.29743ZM3.02503 5.72723C2.23667 5.72723 1.59523 5.08579 1.59523 4.29743C1.59523 3.50901 2.23667 2.86757 3.02503 2.86757C3.81345 2.86757 4.45489 3.50896 4.45489 4.29743C4.45484 5.08579 3.81345 5.72723 3.02503 5.72723Z"
                          fill="#FF5555"
                        />
                        <path
                          d="M10.9749 6.67761C9.30689 6.67761 7.94983 8.03467 7.94983 9.70265C7.94983 11.3706 9.30684 12.7277 10.9749 12.7277C12.6429 12.7277 14 11.3707 14 9.70265C14 8.03462 12.6429 6.67761 10.9749 6.67761ZM10.9749 11.1324C10.1865 11.1324 9.54506 10.491 9.54506 9.70259C9.54506 8.91423 10.1865 8.27279 10.9749 8.27279C11.7633 8.27279 12.4047 8.91423 12.4047 9.70259C12.4047 10.491 11.7633 11.1324 10.9749 11.1324Z"
                          fill="#FF5555"
                        />
                      </g>
                      <defs>
                        <clipPath id="clip0_5_217">
                          <rect width="14" height="14" fill="white" />
                        </clipPath>
                      </defs>
                    </svg>