<svg width="288" height="92" viewBox="0 0 288 92" fill="none" xmlns="http://www.w3.org/2000/svg">
  <path d="M1.16699 91L9.77452 78.3687C11.6371 75.6355 14.7307 74 18.0382 74H31.0432C33.4423 74 35.7615 74.8625 37.5776 76.4302L38.3078 77.0605C40.8019 79.2135 44.1965 79.9997 47.3831 79.1625L50.9183 78.2338C53.8836 77.4548 56.3276 75.3585 57.5492 72.5465L61.1191 64.329C62.0534 62.1783 63.7138 60.4243 65.8101 59.3736L78.4063 53.0601C79.7972 52.363 81.3315 52 82.8872 52H104.055C107.44 52 110.596 50.2875 112.44 47.4491L119.848 36.0509C121.692 33.2125 124.847 31.5 128.233 31.5H143.061C146.01 31.5 148.809 30.1984 150.709 27.9432L156.98 20.5L173.154 3.99986C175.034 2.08116 177.608 1 180.295 1H210.025C212.424 1 214.743 1.86252 216.559 3.4302L246.262 29.0698C248.078 30.6375 250.397 31.5 252.796 31.5H269.6C273.939 31.5 277.783 28.7016 279.117 24.5723L286.727 1" stroke="var(--violet-color)" />
</svg>