<svg width="54" height="54" viewBox="0 0 54 54" fill="none" xmlns="http://www.w3.org/2000/svg">
  <path d="M39.8364 25.7404C45.7257 25.7404 50.5 20.9855 50.5 15.1202C50.5 9.25481 45.7257 4.5 39.8364 4.5C33.9468 4.5 29.1725 9.25481 29.1725 15.1202C29.1725 17.837 30.4125 19.8128 30.4125 19.8128L17.5168 32.6558C16.9382 33.232 16.128 34.7306 17.5168 36.1136L19.0048 37.5955C19.5834 38.0894 21.0383 38.781 22.2286 37.5955L23.9646 35.8666C25.7005 37.5955 27.6846 36.6075 28.4284 35.6195C29.6684 33.8906 28.1805 32.1619 28.1805 32.1619L28.6766 31.6679C31.0573 34.0389 33.1404 32.6558 33.8844 31.6679C35.1244 29.939 33.8844 28.21 33.8844 28.21C33.3883 27.2223 32.3965 27.2223 33.6363 25.9873L35.1244 24.5054C36.3147 25.4934 38.7615 25.7404 39.8364 25.7404Z" stroke="#FF5555" stroke-width="3.375" stroke-linejoin="round" />
  <path d="M5.5 26.9773C5.5 37.5946 5.5 42.9032 8.79836 46.2017C12.0967 49.5 17.4054 49.5 28.0227 49.5C38.6398 49.5 43.9484 49.5 47.2469 46.2017C49.7557 43.6927 50.3562 40.0207 50.5 33.7342M21.2658 4.5C14.9792 4.64373 11.3072 5.24425 8.79836 7.75314C6.60056 9.95092 5.86722 13.0413 5.62254 18" stroke="#FF5555" stroke-width="3.375" stroke-linecap="round" />
  <circle cx="40" cy="15" r="5" stroke="#FF5555" stroke-width="2" />
</svg>