<svg width="16" height="16" viewBox="0 0 16 16" fill="none" xmlns="http://www.w3.org/2000/svg">
  <path fill-rule="evenodd" clip-rule="evenodd" d="M6 1C6 0.447715 6.44772 0 7 0H9C9.55229 0 10 0.447715 10 1V15C10 15.5523 9.55229 16 9 16H7C6.44772 16 6 15.5523 6 15V1ZM0 4C0 3.44772 0.447715 3 1 3H3C3.55228 3 4 3.44772 4 4V15C4 15.5523 3.55228 16 3 16H1C0.447715 16 0 15.5523 0 15V4ZM16 2C16 1.44772 15.5523 1 15 1H13C12.4477 1 12 1.44772 12 2V15C12 15.5523 12.4477 16 13 16H15C15.5523 16 16 15.5523 16 15V2Z" fill="#FF5555" />
</svg>