<svg width="16" height="16" viewBox="0 0 16 16" fill="none" xmlns="http://www.w3.org/2000/svg">
  <path d="M5 16C4.73478 16 4.48043 15.8946 4.29289 15.7071C4.10536 15.5196 4 15.2652 4 15V12H1.75C1.28603 11.9995 0.841222 11.8149 0.513148 11.4869C0.185074 11.1588 0.00052934 10.714 0 10.25V1.75C0.00052934 1.28603 0.185074 0.841222 0.513148 0.513148C0.841222 0.185074 1.28603 0.00052934 1.75 0H14.25C14.714 0.00052934 15.1588 0.185074 15.4869 0.513148C15.8149 0.841222 15.9995 1.28603 16 1.75V10.25C15.9985 10.7143 15.8137 11.1592 15.486 11.488C15.3241 11.6509 15.1315 11.78 14.9193 11.8678C14.7071 11.9557 14.4796 12.0007 14.25 12H9.414L5.707 15.707C5.51951 15.8946 5.26519 15.9999 5 16ZM2 10H5C5.26522 10 5.51957 10.1054 5.70711 10.2929C5.89464 10.4804 6 10.7348 6 11V12.586L8.293 10.293C8.48049 10.1055 8.73481 10.0001 9 10H14V2H2V10Z" fill="#FF5555" />
</svg>