<svg width="23" height="20" viewBox="0 0 23 20" fill="none" xmlns="http://www.w3.org/2000/svg">
  <path d="M11.138 2.91906L11.5 3.29902L11.862 2.91905C14.322 0.33707 16.9723 0.0575072 18.9809 0.985059C21.0225 1.92782 22.5 4.15834 22.5 6.79891C22.5 9.46932 21.4134 11.5217 19.8904 13.2543C18.6434 14.6728 17.1303 15.851 15.6858 16.9757C15.3461 17.2402 15.0103 17.5017 14.6826 17.7627C14.0809 18.2418 13.5218 18.6809 12.9763 19.0029C12.4306 19.3251 11.9468 19.5 11.5 19.5C11.0532 19.5 10.5694 19.3251 10.0237 19.0029C9.47822 18.6809 8.9191 18.2418 8.31748 17.7627C7.98975 17.5017 7.65388 17.2402 7.3142 16.9757C5.86974 15.851 4.3566 14.6728 3.10966 13.2543C1.58659 11.5217 0.5 9.46932 0.5 6.79891C0.5 4.15834 1.97749 1.92782 4.01906 0.985058C6.0277 0.0575076 8.67802 0.337069 11.138 2.91906Z" fill="#FF5555" stroke="#FF5555" />
</svg>