<svg width="21" height="14" viewBox="0 0 21 14" fill="none" xmlns="http://www.w3.org/2000/svg">
  <path d="M13.6473 6.99853C13.6473 8.85487 12.2356 10.3597 10.4943 10.3597C8.75298 10.3597 7.34136 8.85487 7.34136 6.99853C7.34136 5.14217 8.75298 3.63733 10.4943 3.63733C12.2356 3.63731 13.6473 5.14219 13.6473 6.99853ZM10.5 0C8.69706 0.00889898 6.82826 0.497291 5.05918 1.43235C3.74567 2.15521 2.46557 3.17507 1.35439 4.43387C0.80864 5.07645 0.112543 6.00689 0 6.99962C0.0133 7.85955 0.842275 8.92096 1.35439 9.56539C2.3964 10.7748 3.64315 11.7661 5.05918 12.5677C6.70892 13.4585 8.53496 13.9715 10.5 14C12.3047 13.991 14.173 13.4969 15.9402 12.5677C17.2537 11.8448 18.5344 10.8242 19.6456 9.56539C20.1913 8.92281 20.8874 7.99235 21 6.99962C20.9867 6.13969 20.1577 5.07824 19.6456 4.43383C18.6036 3.22447 17.3562 2.23384 15.9402 1.43231C14.2913 0.542098 12.4607 0.0326945 10.5 0ZM10.4987 1.73789C13.2308 1.73789 15.4455 4.09396 15.4455 7.00038C15.4455 9.90678 13.2308 12.2628 10.4987 12.2628C7.76659 12.2628 5.55186 9.90676 5.55186 7.00038C5.55186 4.09396 7.76659 1.73789 10.4987 1.73789Z" fill="#FF5555" />
</svg>