<svg width="355" height="174" viewBox="0 0 355 174" fill="none" xmlns="http://www.w3.org/2000/svg">
<path d="M55.2052 121.914C50.9705 125.764 17.029 156.561 0.828125 172.441C105.572 172.762 318.621 173.404 332.865 173.404C347.109 173.404 353.236 159.93 354.52 153.193V47.3261L349.226 36.7394C347.783 38.0226 337.196 -4.55465 327.09 1.12967C314.771 8.05913 309.286 12.1976 301.586 13.6412C294.047 13.16 274.061 13.545 254.427 13.16C234.794 12.775 228.923 13.16 217.374 20.3782L193.313 40.1079L170.696 61.2813L146.154 80.5298H140.861H134.605H126.906H119.206L110.063 85.8231L99.958 95.9286L86.9652 107.959L72.5288 115.658C70.2832 116.621 59.4398 118.064 55.2052 121.914Z" fill="url(#paint0_linear_244_155)"/>
<defs>
<linearGradient id="paint0_linear_244_155" x1="130.756" y1="-1.7576" x2="177.914" y2="173.404" gradientUnits="userSpaceOnUse">
<stop stop-color="#E84754"/>
<stop offset="1" stop-color="#FF505E" stop-opacity="0"/>
</linearGradient>
</defs>
</svg>
