<svg width="355" height="187" viewBox="0 0 355 187" fill="none" xmlns="http://www.w3.org/2000/svg">
<path d="M54.1175 132.942C49.8828 136.792 16.4225 169.515 0.22168 185.395C104.966 185.715 318.015 186.357 332.258 186.357C346.502 186.357 352.63 172.883 353.913 166.146L354.394 0.127686L352.469 0.608898C351.026 1.89213 344.621 5.03379 334.183 14.5641C323.115 24.6695 305.792 36.8603 300.017 38.6247C292.478 38.1435 270.663 33.8126 252.858 28.5192C234.035 22.9232 213.078 33.4918 208.587 36.2186L186.932 50.1738L146.992 79.5278L103.682 105.994L66.1478 125.243C63.9022 126.205 58.3522 129.093 54.1175 132.942Z" fill="url(#paint0_linear_244_129)"/>
<defs>
<linearGradient id="paint0_linear_244_129" x1="130.149" y1="11.1956" x2="177.308" y2="186.357" gradientUnits="userSpaceOnUse">
<stop stop-color="#30D615"/>
<stop offset="1" stop-color="#35EC17" stop-opacity="0"/>
</linearGradient>
</defs>
</svg>
