                <svg
                  width="16"
                  height="14"
                  viewBox="0 0 16 14"
                  fill="none"
                  xmlns="http://www.w3.org/2000/svg"
                >
                  <path d="M7.63693 2.14568L8 2.52915L8.36308 2.14568C10.0359 0.378892 11.8102 0.207641 13.1392 0.825223C14.5022 1.45853 15.5 2.9644 15.5 4.75923C15.5 6.58322 14.7642 7.9865 13.7215 9.18015C12.8643 10.1613 11.8258 10.9751 10.8218 11.7619C10.5843 11.948 10.3487 12.1326 10.118 12.3175C9.69801 12.654 9.31724 12.9545 8.94848 13.1736C8.57936 13.3928 8.27098 13.5 8 13.5C7.72902 13.5 7.42064 13.3928 7.05152 13.1736C6.68277 12.9545 6.302 12.654 5.88206 12.3175C5.65128 12.1326 5.4157 11.948 5.1782 11.7618C4.17419 10.9751 3.13566 10.1613 2.27855 9.18015C1.23576 7.9865 0.5 6.58322 0.5 4.75923C0.5 2.9644 1.49783 1.45853 2.86075 0.825223C4.18983 0.207642 5.96408 0.378891 7.63693 2.14568Z" />
                </svg>