<svg width="20" height="19" viewBox="0 0 20 19" fill="none" xmlns="http://www.w3.org/2000/svg">
  <path d="M1.53845 12.0768C1.53845 11.652 1.19407 11.3076 0.769227 11.3076C0.344399 11.3076 5.37384e-07 11.652 5.37384e-07 12.0768V12.1332C-1.99753e-05 13.5358 -4.05615e-05 14.6664 0.119507 15.5556C0.24363 16.4788 0.509157 17.256 1.12651 17.8733C1.74386 18.4908 2.52116 18.7563 3.44434 18.8804C4.33353 18.9999 5.46411 18.9999 6.86676 18.9999H13.1332C14.5358 18.9999 15.6664 18.9999 16.5556 18.8804C17.4788 18.7563 18.256 18.4908 18.8734 17.8733C19.4908 17.256 19.7563 16.4788 19.8804 15.5556C19.9999 14.6664 19.9999 13.5358 19.9999 12.1332V12.0768C19.9999 11.652 19.6555 11.3076 19.2307 11.3076C18.8058 11.3076 18.4614 11.652 18.4614 12.0768C18.4614 13.549 18.4598 14.5758 18.3557 15.3506C18.2545 16.1032 18.0694 16.5016 17.7855 16.7855C17.5016 17.0694 17.1032 17.2545 16.3506 17.3557C15.5758 17.4598 14.549 17.4614 13.0768 17.4614H6.92304C5.45083 17.4614 4.42405 17.4598 3.64933 17.3557C2.89675 17.2545 2.49821 17.0694 2.21436 16.7855C1.9305 16.5016 1.74543 16.1032 1.64425 15.3506C1.54008 14.5758 1.53845 13.549 1.53845 12.0768Z" fill="#FF5555" />
  <path d="M10.5674 0.250173C10.4216 0.0907893 10.2157 0 9.9997 0C9.7837 0 9.57775 0.0907893 9.43201 0.250173L5.32945 4.73733C5.04279 5.05086 5.06457 5.53742 5.37811 5.82409C5.69165 6.11075 6.17821 6.08897 6.46487 5.77543L9.23047 2.75055V14.1025C9.23047 14.5273 9.57488 14.8717 9.9997 14.8717C10.4245 14.8717 10.7689 14.5273 10.7689 14.1025V2.75055L13.5346 5.77543C13.8212 6.08897 14.3078 6.11075 14.6213 5.82409C14.9349 5.53742 14.9566 5.05086 14.6699 4.73733L10.5674 0.250173Z" fill="#FF5555" />
</svg>