<svg width="27" height="27" viewBox="0 0 27 27" fill="none" xmlns="http://www.w3.org/2000/svg">
  <path d="M13.5 24.75C19.7132 24.75 24.75 19.7132 24.75 13.5C24.75 7.2868 19.7132 2.25 13.5 2.25C7.2868 2.25 2.25 7.2868 2.25 13.5C2.25 19.7132 7.2868 24.75 13.5 24.75Z" stroke="#FF5555" stroke-width="1.6875" />
  <path d="M10.125 18C11.0817 18.7091 12.2452 19.125 13.5 19.125C14.7548 19.125 15.9183 18.7091 16.875 18" stroke="#FF5555" stroke-width="1.6875" stroke-linecap="round" />
  <path d="M18 11.8125C18 12.7445 17.4963 13.5 16.875 13.5C16.2537 13.5 15.75 12.7445 15.75 11.8125C15.75 10.8805 16.2537 10.125 16.875 10.125C17.4963 10.125 18 10.8805 18 11.8125Z" fill="#FF5555" />
  <path d="M10.125 13.5C10.7463 13.5 11.25 12.7445 11.25 11.8125C11.25 10.8805 10.7463 10.125 10.125 10.125C9.50368 10.125 9 10.8805 9 11.8125C9 12.7445 9.50368 13.5 10.125 13.5Z" fill="#FF5555" />
</svg>