<svg width="24" height="27" viewBox="0 0 24 27" fill="none" xmlns="http://www.w3.org/2000/svg">
  <path d="M9.66667 13.5L14.7778 18.6111M14.7778 13.5L9.66667 18.6111M2 5.83333H22.4444M17.3333 5.83333L16.9876 4.79587C16.6524 3.79049 16.4848 3.2878 16.174 2.91614C15.8995 2.58794 15.5471 2.33391 15.149 2.17733C14.698 2 14.1683 2 13.1085 2H11.336C10.2762 2 9.7464 2 9.29548 2.17733C8.89734 2.33391 8.54488 2.58794 8.27043 2.91614C7.95962 3.2878 7.79206 3.79049 7.45693 4.79587L7.11111 5.83333M19.8889 5.83333V18.8667C19.8889 21.0136 19.8889 22.0869 19.4711 22.907C19.1036 23.6283 18.5172 24.2147 17.7959 24.5822C16.9758 25 15.9025 25 13.7556 25H10.6889C8.54202 25 7.46858 25 6.64859 24.5822C5.9273 24.2147 5.34088 23.6283 4.97336 22.907C4.55556 22.0869 4.55556 21.0136 4.55556 18.8667V5.83333" stroke="#FF5555" stroke-width="2.55556" stroke-linecap="round" stroke-linejoin="round" />
</svg>