<svg width="34" height="34" viewBox="0 0 34 34" fill="none" xmlns="http://www.w3.org/2000/svg">
  <path d="M32.2587 23.8535V30.5777C32.2587 31.5061 31.5061 32.2587 30.5777 32.2587H3.68104C2.75264 32.2587 2 31.5061 2 30.5777V27.2156M32.2587 23.8535V3.68104C32.2587 2.75264 31.5061 2 30.5777 2H3.68104C2.75264 2 2 2.75264 2 3.68104V27.2156M32.2587 23.8535L22.9843 17.6705C22.4823 17.3358 21.8395 17.2958 21.2999 17.5656L2 27.2156" stroke="#FF5555" stroke-width="2.1917" stroke-linejoin="round" />
  <path d="M10.2329 15.3495C12.076 15.3495 13.5702 13.8553 13.5702 12.0122C13.5702 10.169 12.076 8.6748 10.2329 8.6748C8.3897 8.6748 6.89551 10.169 6.89551 12.0122C6.89551 13.8553 8.3897 15.3495 10.2329 15.3495Z" stroke="#FF5555" stroke-width="2.1917" stroke-linejoin="round" />
</svg>