<svg width="19" height="19" viewBox="0 0 19 19" fill="none" xmlns="http://www.w3.org/2000/svg">
  <path fill-rule="evenodd" clip-rule="evenodd" d="M17.2211 0.762396C16.2046 -0.25413 14.5564 -0.254134 13.5399 0.762396L1.25589 13.0464C0.892513 13.4098 0.644822 13.8726 0.544043 14.3765L0.0346636 16.9234C-0.208185 18.1376 0.862371 19.2082 2.07661 18.9653L4.6235 18.4559C5.12741 18.3552 5.59022 18.1075 5.9536 17.7441L18.2376 5.4601C19.2541 4.44357 19.2541 2.79546 18.2376 1.77892L17.2211 0.762396ZM14.7669 1.98945C15.1058 1.65061 15.6552 1.65061 15.9941 1.98945L17.0105 3.00599C17.3494 3.34482 17.3494 3.89419 17.0105 4.23304L14.6925 6.55107L12.449 4.30749L14.7669 1.98945ZM11.2218 5.53455L2.48295 14.2735C2.36182 14.3946 2.27926 14.5489 2.24567 14.7168L1.73629 17.2637L4.28318 16.7543C4.45115 16.7207 4.60542 16.6382 4.72654 16.5171L13.4654 7.77813L11.2218 5.53455Z" fill="white" />
</svg>