<svg width="32" height="32" viewBox="0 0 32 32" fill="none" xmlns="http://www.w3.org/2000/svg">
  <path d="M16.0014 13.2902C17.2182 13.2922 18.4082 12.9332 19.4209 12.2586C20.4335 11.5841 21.2234 10.6243 21.6904 9.50067C22.1574 8.37708 22.2806 7.14021 22.0444 5.94657C21.8083 4.75292 21.2233 3.65616 20.3636 2.79507C19.5039 1.93398 18.4081 1.34725 17.2149 1.10914C16.0216 0.871031 14.7846 0.992236 13.6602 1.45742C12.5359 1.9226 11.5748 2.71086 10.8985 3.72244C10.2223 4.73401 9.86139 5.92345 9.86139 7.14023C9.86139 8.76958 10.508 10.3323 11.6591 11.4854C12.8103 12.6385 14.372 13.2876 16.0014 13.2902ZM16.0014 3.00023C16.823 2.99825 17.6268 3.24022 18.3108 3.69546C18.9948 4.15071 19.5282 4.79875 19.8436 5.55747C20.1589 6.31619 20.2419 7.15144 20.0821 7.95739C19.9223 8.76334 19.5269 9.50372 18.9459 10.0847C18.3649 10.6657 17.6245 11.0612 16.8186 11.221C16.0126 11.3808 15.1773 11.2977 14.4186 10.9824C13.6599 10.6671 13.0119 10.1336 12.5566 9.4496C12.1014 8.76561 11.8594 7.96187 11.8614 7.14023C11.864 6.04304 12.3011 4.99155 13.0769 4.21572C13.8527 3.43989 14.9042 3.00287 16.0014 3.00023ZM27.3814 26.8102C26.1814 29.9002 20.7214 31.0002 16.0014 31.0002C11.2814 31.0002 5.82139 29.9002 4.62139 26.8102C3.98139 25.1602 4.55139 22.7102 6.11139 20.4202C7.19653 18.7823 8.66392 17.4329 10.3869 16.4887C12.11 15.5444 14.0369 15.0336 16.0014 15.0002C18.3199 15.051 20.5763 15.7594 22.5079 17.0429C24.4394 18.3265 25.9665 20.1324 26.9114 22.2502C26.9789 22.3715 27.0203 22.5056 27.0332 22.6438C27.046 22.782 27.03 22.9213 26.986 23.053C26.942 23.1846 26.8712 23.3057 26.7779 23.4085C26.6846 23.5113 26.5709 23.5935 26.4441 23.6499C26.3173 23.7063 26.1801 23.7358 26.0413 23.7363C25.9025 23.7368 25.7651 23.7085 25.6379 23.653C25.5106 23.5975 25.3963 23.5162 25.3022 23.4141C25.2082 23.3121 25.1364 23.1915 25.0914 23.0602C24.2903 21.3043 23.015 19.8067 21.4091 18.7361C19.8032 17.6655 17.9304 17.0644 16.0014 17.0002C14.3632 17.0334 12.7578 17.4651 11.3239 18.2578C9.88997 19.0506 8.67067 20.1806 7.77139 21.5502C6.43139 23.5002 6.16139 25.2702 6.48139 26.0902C7.14139 27.7802 11.1414 29.0002 16.0014 29.0002C20.8614 29.0002 24.8614 27.7802 25.5214 26.0902C25.6297 25.8623 25.8202 25.6837 26.0547 25.5903C26.2891 25.497 26.5502 25.4957 26.7856 25.5868C27.021 25.6779 27.2132 25.8547 27.3237 26.0816C27.4342 26.3085 27.4548 26.5688 27.3814 26.8102Z" fill="#22242B" />
</svg>