<svg width="355" height="187" viewBox="0 0 355 187" fill="none" xmlns="http://www.w3.org/2000/svg">
<path d="M54.0804 133.14C49.8457 136.989 16.3854 169.712 0.18457 185.592C104.929 185.913 317.977 186.554 332.221 186.554C346.465 186.554 352.593 173.08 353.876 166.343L354.357 0.324951H353.395C351.951 1.60819 345.984 5.90702 333.665 12.8365C321.346 19.7659 306.717 25.0272 300.943 26.7917C293.404 26.3104 273.417 25.2518 253.784 24.8668C234.15 24.4818 220.259 29.8393 215.768 32.5662L186.895 50.3711L146.954 79.7251L103.645 106.192L66.1107 125.44C63.8651 126.403 58.3151 129.29 54.0804 133.14Z" fill="url(#paint0_linear_244_115)"/>
<defs>
<linearGradient id="paint0_linear_244_115" x1="130.112" y1="11.3928" x2="177.271" y2="186.554" gradientUnits="userSpaceOnUse">
<stop stop-color="#30D615"/>
<stop offset="1" stop-color="#35EC17" stop-opacity="0"/>
</linearGradient>
</defs>
</svg>
