<svg width="20" height="20" viewBox="0 0 20 20" fill="none" xmlns="http://www.w3.org/2000/svg">
  <path fill-rule="evenodd" clip-rule="evenodd" d="M19.0085 2.75901C19.2362 2.52326 19.3622 2.20751 19.3593 1.87976C19.3565 1.55202 19.225 1.2385 18.9933 1.00674C18.7615 0.774982 18.448 0.64352 18.1202 0.640672C17.7925 0.637824 17.4767 0.763818 17.241 0.991515L9.99973 8.23276L2.75848 0.991515C2.52273 0.763818 2.20698 0.637824 1.87923 0.640672C1.55149 0.64352 1.23797 0.774982 1.00621 1.00674C0.774452 1.2385 0.64299 1.55202 0.640142 1.87976C0.637294 2.20751 0.763288 2.52326 0.990985 2.75901L8.23223 10.0003L0.990985 17.2415C0.871598 17.3568 0.77637 17.4948 0.710859 17.6473C0.645347 17.7998 0.610864 17.9638 0.609422 18.1298C0.60798 18.2957 0.639607 18.4603 0.702458 18.614C0.765309 18.7676 0.858125 18.9071 0.975491 19.0245C1.09286 19.1419 1.23242 19.2347 1.38604 19.2975C1.53966 19.3604 1.70426 19.392 1.87024 19.3906C2.03621 19.3891 2.20024 19.3547 2.35274 19.2891C2.50525 19.2236 2.64318 19.1284 2.75848 19.009L9.99973 11.7678L17.241 19.009C17.4767 19.2367 17.7925 19.3627 18.1202 19.3599C18.448 19.357 18.7615 19.2255 18.9933 18.9938C19.225 18.762 19.3565 18.4485 19.3593 18.1208C19.3622 17.793 19.2362 17.4773 19.0085 17.2415L11.7672 10.0003L19.0085 2.75901Z" fill="#FF5555" />
</svg>